<svg xmlns="http://www.w3.org/2000/svg" viewBox="0 0 200 200" width="0" height="0">
  <defs>
    <clipPath
      id="logo-symbol-clip"
      clipPathUnits="objectBoundingBox"
      transform="scale(0.00498 0.00498)"
    >
      <path d="M200 100c0 55.2-44.8 100-100 100S0 155.2 0 100 44.8 0 100 0s100 44.8 100 100zM100 13.7c-47.7 0-86.3 38.6-86.3 86.3 0 47.7 38.6 86.3 86.3 86.3s86.3-38.6 86.3-86.3c0-47.7-38.6-86.3-86.3-86.3z"/>
      <path d="M174.3 57.2L100 185.9 25.7 57.2h148.6zM100 79c-22.6 0-40.9 23.5-40.9 23.5S77.4 126 100 126s40.9-23.5 40.9-23.5S122.6 79 100 79z"/>
      <circle cx="100" cy="102.4" r="13.2"/>
    </clipPath>
  </defs>
</svg>
