<svg xmlns="http://www.w3.org/2000/svg" viewBox="0 0 200 200" width="0" height="0">
  <defs>
    <clipPath
      id="logo-name-clip"
      clipPathUnits="objectBoundingBox"
      transform="scale(0.00498 0.00498)"
    >
      <path d="M197.1 98.1c0 1 .2.6.2.8v-.8h-.2zM195 81.2c.1.8.4 1.6.6 2.2l-.6-2.2zm-.4-2.9c-.8-3-1.6-5.9-2.4-8.9.2 1.4.8 2.9 1.2 4.2.5 1.6.6 3.1 1.2 4.7zm-4.5-16.4c.2.5 1 2.7.7 1.6-2-5.1-.2-.5-.7-1.6zm.7 1.5c.5 1.4-.3-1 0 0zm-3.1-7.1c.3.9.8 1.8 1.2 2.6-.3-1-.9-1.9-1.2-2.6zm-.2 0c.2.7.6 1.4 1 2l-1-2zM189 60c.8 1.7.4.9 0 0zm0 0l.2.4-.2-.4zm.2.4c.3.7.8 1.8.8 2 0-.5-.3-1.2-.6-1.7v.2-.4l-.2-.1zm-.2-1l.6 1.2c.4-.3 0-.5-.4-1.2h-.2zm3.1 10.4c.1 0 .3 1 .5 1.5l-.8-2v.5h.3zm-.4-.9l.2.6-.2-.6zm.3 1.1s0 .1 0 0zm-3.7-11.6l-2.1-3.7 1.2 2 .8 1.6.1.1zm-143-43.3l-1.6.9 1.6-.9zm.3-.3l-.4.2.4-.2zm.3-.1l-.3.2c.1-.1.2-.2.3-.2zM43.8 16l-.6.3.6-.3zm65-15.7c-1.4-.2-2.7-.3-4-.3 1.3.2 2.6.2 4 .3zm0 0c-.7-.1-.7 0 0 0zm72 37.8l.8-2.2v-.1 2.1c-1 .7-.9 1.3-.9 2 0-.5.3-1.2.3-1.8 0 .1 0 0 0 0h-.2zm-28.9-24s.1.1 0 0zm17.8 15.7s-.2 0 0 0zm-127 151.4c.1-.1 0-.2 0 0zm88-178.7c-1.2 0-2.2-.2-3.2-.4l3.6.7c-.7-.2-.8-.3-.4-.3zm34.5 24.3c.1 0-.1-.5 0 0zm4.2 2.5c.4 0-.1 0 0 0zM47.9 184.1zM172.2 34.3c0-.1 0 .1 0 0zM9.2 143.8zm174.7-92.9l-.1-.2c.4 0 .4.1.4.2h-.3zm-23.3 128.3zM5.7 136.9c0-.1 0-.1 0 0zm128.6-133l1.2.4c-.4-.3-.9-.4-1.2-.4zM2.3 126.6s.1 0 0 0zm161.3 48.9h.1c.5 0 .4-.2.2-.2l-.3.2c0 .4-.4.4-.4.4l.4-.4zM2.2 127c.2 0 .1 0 0 0zm.6 2.7l-.3-.3c-.1.4.1.5.3.3zm108.9 67c-.6.3-1.2.3-1.8.3.4.1 1.2 0 1.6-.3h.2zm10-1.9l.2-.1-.6.1h.4zm28.6-12.3c.1-.1.2-.1.3-.2l-.3.2zm22.3-15v-.2.2zM42.3 181.2c-.1 0-.1.1 0 0zm-1.4-.6l-.2.1c.1 0 .2 0 .2-.1zm33 13.5l-1-.3h-.3c.4.3.8.3 1.3.3zm89.3-17.4h-.2.2zm0 0zm9.4-9.4zm-10 9.2zm-8.5 4.9l.1.2c.2-.1.2-.1-.1-.2zm1.5 2.3zm-.6-2.9c0-.1-.1-.1-.2-.2.1.2.2.3.2.2zm-.9.6s0-.1-.1-.1h.4l-.3.1zm-.5 3.1zm-147-42.7c-.2 0-.1 0 0 0zm146.7 42.3s.1.1 0 0zM2.8 129.8l.2-.1c0 .4-.1.4-.2.4v-.3zm37.8 50.8v-.2.2zm-6.3-5.6c0 .1 0 .1 0 0zM2.5 72.3l.2-.6-.2.6zM118.3 1.6c-.2 0 0 .1.1.1-.1-.2 0-.2-.1-.1zM40 180c-.1 0-.1.1 0 0zm-26.7-23.7H13v.4l.3-.4zm9.7 11.2c-.4-.4-1.2-.8 0 0zM127 2.2c.2 0 .3 0 .4.1l-.4-.1zM20.6 164.8v-.4c-1 .1-1 .2 0 .4zm137.3 12.9l.2-.1s-.1 0-.2.1zM74.2 3.2s.1 0 0 0zm79.4 12.6h-.2l.2.1v-.1zM21 162.9c.4.3-.2-.2 0 0zM179 42c-.1.1-.2.2 0 0zm-25.3-26.2v-.4c-.3-.4 0 0-.2-.4s-.1 0 .1.4c.1 0 0 0 0 0l.1.4zm-.1.1l.3.3-.3-.3c.4 0 .4 0 0 0zm-99.3-5.2s-.1 0 0 0c0 .1 0 0 0 0zM34.9 175.6s0-.1 0 0zM156.7 18.3c0 .3 0 .2 0 0zm15.9 147zm-6.3-138c0-.1-.1.1 0 0zM25.7 167.5c0-.1-.1-.1-.1-.2l.1.2zM154 16.5c-.1-.2-.2-.3-.3-.3.1 0 .2.2.3.3zm12.7 11.9c-.1.1 0 0 0 0zM177 159.2zM169 31zM136.2 6.7l.4.2c-.1-.4-.2-.4-.4-.4v.2zm-2.9-1.6c-.2 0-.3 0-.4-.1.1.1.2.1.4.1zm4.8.8l-.8-.2c.5.4.8.4.8.3v-.1zm15 10c.1.3 0 0 0 0zm-.3-.2c.2 0 .1-.4 0 0zM93.1.7s.2 0 0 0zm60.4 15.8l.1-.3-.1.3zm7.5 159.8l.3.1-.3-.1zM148.6 14.7c-.2-.1 0 0 0 0zm15.2 161.2c.1-.1.2-.1 0 0zM115.4 2.2c-.4-.2-.8-.2-1.2-.2l1.2.2zm-4.6-.1zm64.5 158.7l-.1.1.2.1s-.1-.1-.1-.2h.3-.3zm.1.4c-.1-.1-.2-.2-.2-.3h-.1c-.1.2.1.3.3.3zm0 0s.1 0 .1.1c0 0-.1 0-.1-.1zM124.3 3.8c-.5 0 0 0 0 0zm44.9 26.1c0-.1 0 0 0 0zM132.9 5.1zM12.5 148.7c.1.1.1 0 0 0zM165 26l-.1-.1c.4 0 .4.1.4.1h-.3zM15.8 154.3c.1.3.4 0 0 0zM164.5 25.5l.1.1-.1-.1zM18.9 159.6c0 .1.1.2.2.2l-.2-.2zM182.3 45.5s-.1.3.1.7c0 0 0-.4-.1-.7zM170 32.2zM11.2 150.6c0 .2.1.3.2.5l-.2-.5zm6.4 7.5h.1-.1zm0-1.1c-.1-.2-.2-.2-.4-.3 0 .2.2.3.4.3zm179.3-52.9c0 .8.2-1.3.2-1.7l-.2 1.7zm-.2-5.2c0 .6 0 1.2-.1 1.8.5-.7.1-1.1.1-1.8zm-60.6-94c.3 0 .5 0 .8.1-.2-.2-.5-.2-.8-.1zm2.6-.1l-1-.4.8.4h.2zm-1.1-.3l.1.2c.2-.1.2-.1-.1-.2zm-13.5-.7s.2 0 0 0zm57.1 41.6s.1.2 0 0zm3.4-.2V45v.2zm-.7-.1c0 .3 0 .7.1.8l.5 1.2c0 .3-.4-1.3-.8-2h.2zm.1.9l-.2-.6.4.5-.2.1zm-8.2-9.4c0-.1-.1-.1-.1-.1.1 0 0 .2.1.1zm-4-5.2h.3-.3zm-2.2-1.3zm-2.5-3.3c-.1-.4-.4.9 0 0zm5 4.9c0 .1 0 .1 0 0zm0 0c.1 0 .1-.1.2-.2 0 .4-.1.4-.1.4l-.1-.2zm1.2.5c-.1 0-.1 0-.2-.1.1 0-.1.3.2.1zm-11.7-11.5l.3.1c-.2-.3-.2-.2-.3-.1zm-1.4-2.3c0-.2-.2-.3-.3-.4.2.2.1.6.3.4zm8.6 153.5l.1.2c0-.2-.1-.3-.1-.2zm.4-1.2c-.1.1.7-.1 0 0zm1-.1c-.1-.1 0 0 0 0zm0 0s-.1.1 0 0zm0 0c-.1.1 0 0 0 0zm.1-.3c.2.3.2 0 0 0zm-.1-.2c.1 0 .1 0 0 0zm0 .1c.2.2-.1-.1 0 0zm0 0c-.1-.1 0-.1 0 0zm-.2 0c-.1.2.1.3.2.1-.4 0-.4 0-.4-.1h.2zm-.6 0c-.3.2 0 0 0 0zm1.3-.4s.5 0 0 0zm0-.2v.2-.2zm.7-.3c.1.3.4 0 0 0zm.3-.1v-.2.2zm-.9.3c.4.2.1-.1 0 0zm0 0s.2-.2 0 0zm-.7 0c0 .1.2.1.2.2 0 0 0-.2-.2-.2zm.4 0c.2.1.2 0 0 0zm.1-.2c0 .1 0 .1 0 0zm.6-.2c0-.4 0-.1 0 0zm-.1-.1s0 .2 0 0zm.4-.2h-.1.4-.3zm-.4.4c0-.2-.1 0 0 0zm-.1-1.6s.6 1.5.6.6c-1.1-.4.8-.1-.4-.8h-.2v.2zm.4 1.2c-.8-1 .3.4 0 0 0 0 .2-.4 0 0zm0 0c0-.1-.1-.2 0 0zm-1.4.4c.1.2.5.3 0 0zm.7-.2c0-.4-.1-.2 0 0zm1.1-.6c-.1 0 0 0 0 0zm.1-.2c.3.2.1 0 0 0zm3.9-5c.4 0 .1 0 0 0zm1.4-4.2c-.1 0 .2.4 0 0zm-4.6 8.5c0 .1 0 .1 0 0zm0 0c.1 0 .2-.1 0 0zm-.3.4c.1.1.2 0 0 0zm-1.5.1c0 .2 0 0 0 0s.1 0 0 0zm1-.4c-.4-.3 0 .5 0 0zm-.1.2zm1-.6l.1.1c.1 0 0-.4-.1-.4v.3zm-1.2.3l-.1-.1h.1v.1zm.4-.5c-.3.2 0 0 0 0zm-.3.1s-.3.2 0 0zm1.2-1.3c0-.3-.1 0 0 0zm0 0c-.1 0 0 0 0 0zm1.2-1.7s.1 0 .1.1l-.4-.1h.3zm0 0s-.1 0 0 0zm-16.8 18.6c-.1 0 .1.2.1.2h-.1v-.2zm1-1.4c-.2.1 1-.4 0 0zm0 0l-.3-.1.3.1zm1.3-.4c0-.1 0-.1-.1 0 .1 0 .1-.1.1 0zm0 0c-.2.1 0 .1 0 0zm.3-.4c.1.5.1 0 0 0zm-.1-.1zm0 0c.1.2-.1-.1 0 0zm0 0c-.1-.1 0 0 0 0zm-.4.1c-.2.2 0 .3.2.1v-.1h-.2zm-.8.1c-.4.3 0 0 0 0zm1.8-.7c.5-.1 0 0 0 0zm.4-.1v-.2.2zm.6-.7c.2.2.6-.1 0 0zm.3-.1v-.2.2zm-1 .4c.4.2.1-.1 0 0zm0 0c.1 0 .1 0 0 0zm-.8.1c0 .1.2.1.2.3-.1-.1.1-.4-.2-.3zm.5.1c0-.1 0-.4 0 0zm.4-.2zm.5-.6c0-.5 0-.1 0 0zm.9-.9c-.2 0 0 0 0 0zm-1 .9s-.1 0 0 0zm0 0c-.2.1-.1.2 0 0zm.6.3h-.2.2zm-.7 0c.1-.3-.1 0 0 0zm.9 0h-.1.1zm.1-1c.1 0 .1 0 0 0zm-.5.4c.1-.2-.1-.2 0 0zm0 0c-.5-1 .2.5 0 0zm0-.1c.4-.4.1-.1 0 0zm-.9.3c.1-.6-.1-.1 0 0zm1.5-.7c.3 0-.1 0 0 0zm.3-.2c-.1-.3 0-.2 0 0zm2.4-3.1l.3-.2c-.1.1-.3.1-.3.2zm.5-.3c-.4 0 0 .4 0 0zm-2 2.3l.1-.1-.1.1zm.2-.2c-.2.2 0 .1 0 0zm-.7.7c.1.1.3-.1 0 0zm-.7-.1s0-.1 0 0zm0 0s.4-.5 0 0zm-.1.1c0 .1 0 0 0 0 .1-.1-.3-.1-.3 0h.3zm1.7-.9v.2c1 .1 0-.5 0-.2zm19.7-26.5c-.1.1-.1.1 0 0-.2.3-.3.5-.4.8.6-.2.6-1.4.6-1.7l-.3.8.1.1zm.3-.2zm-1.9 1.9c-.1.1 0 0 .1-.2-.2.1-.3.6-.1.2zm0-.2c.2-.3-.1.1 0 0zm-.6 1.6l.1-.2s-.1 0-.1.2zm.1-.3c.1.1.1 0 0 0zm0 0c-.2-.4.2.3 0 0zm.3-.4c.2-.2.4-.4.2 0 0-.7 0-.7-.4 0h.2zm1.5-1.4s.6-.9 0 0zm-1.5 1.9c0-.1 0-.2 0 0zm-.8 1.7c0-.2-.2 0-.1-.4-.1.3-.4.8.1.4zM156.2 180c-.4-.3-.1 0 0 0zm-6 4zm2.6 0c0 .1 0 0 0 0zm-2.1-.2zm-.7.3c-.1-.6 0 0 0 0zm5.5-.9s-.2-.2 0 0zm-.8.6s-.1-.2 0 0zM27.4 171.3l-.4-.2.4.2zm-10.6-10.7l-.4-.2c.4.6.2.2.4.2zm13 10.4c-.3-.3-.6-.4-.9-.7 0 .8.4.7.8.7h.1zM7.6 145.6l.1.3-.4-.2.3-.1zm9.2 15c-.1 0 0 0 0 0zm3.7 4.7l.8.8c-.6-.5-.7-1.1-.8-.8zm-3.1-8.7c-.1-.2 0-.1 0 0zm-1.6-2.9s.4.8 0 0zm21.8 24.1zm6 4.9v-.1.1zM49 185c.1 0 0 0 0 0zm-.9-.4c0-.4 0-.1 0 0zm-.6-.5c.4.2 0 0 0 0zm.4.4s-.1 0-.1-.1v.1h.1zm-2-1.2c.5-.2-.3-.1 0 0zm.3.5c.1-.1 0-.1 0 0zm-.6 0s.2 0 .1-.1c-.1.4-.4 0-.1.4v-.3zm-1.7-2s0 .1-.1.1l.1-.1zm0 0s0-.1.1-.1h-.1v.1zm-2.4-.6c-.2 0-.3.2 0 0zm.1.9zm-7-6.1zm-2.1-2.4c0 .1.1.1.1.2-.1 0 .1-.3-.1-.2zm11.3 8c.2.2 0 0 0 0zm-1-.8s.2.2 0 0zm-11.4-8.1c.1-.3 0-.1 0 0zm0 0c-.2-.9-.1.2 0 0zm-.1.6c.1.1 0 0 0 0zm0 0s0 .1 0 0zm.3.1c-.3.2-.1.3 0 0zm.1-.1c-.1 0-.1 0 0 0zm-.1 0c-.1.2.1 0 0 0zm0 0c.1-.1 0 0 0 0zm0-.2c-.1 0-.2.1 0 .2 0-.1-.1-.2 0-.2zm0-.6c-.1-.2 0 0 0 0zm.2 1.3c.2-.2.2-.2 0 0zm.2-.1l.1-.1-.1.1zm0 1.5h.1-.1zm.2-1.1c0-.1 0-.1 0 0zm.2 0c-.4.2 0 .4 0 0zm.1.1s-.1 0-.1.1c0 0 .1 0 .1-.1zm-.3-.4c.1-.4 0 0 0 0zm0-.1c0 .1.1.1 0 0zm-.2-.4c.1 0 .3 0 .3-.2-.2.1-.2.2-.3.2zm.1.2c.1 0 .2-.1 0 0zm.2 0c-.1.1-.1 0 0 0zm.3.4c-.3.2.2.2 0 0zm0 0s-.2 0 0 0zm.1.4v-.2c0 .4-.1.4 0 .4v-.2zm-.4-.4c.3 0 .1-.1 0 0zm.7.4c0 .2-.1.4 0 0zm16.7 11.4s0-.1 0 0zm-15.9-10.8s0 .1 0 0zm-.4-.2c.2 0 0 0 0 0zm.6.1s-.1.2-.1.1c-.4.2 0-.1 0-.1h.1zm16.1 11.1c-.4.4 0 0 0 0zM1.2 124.4c-.1 0 0 0 0 0zm-.2 1s.1 0 0 0zm0 0s.2 0 0 0zm0 0c0-.1 0 0 0 0zm0 .2c.4 0 0 0 0 0zm.4-.1zm-.1 0c-.1 0 .2 0 0 0zm0 0c.2 0 .1 0 0 0zm0-.1s0-.1.1-.1c0-.1-.2 0-.1.1zm0 .6c.3-.1.2-.1 0 0zm.2-.6c-.1 0-.1 0 0 0zm0-.3zm0 1.3c.2-.1-.5 0 0 0zm.1.2c-.4 0-.2.2 0 0zm.1.5h-.1.1zm-.2-.9c.4-.3 0 0 0 0zm0 0zm.2 0s0 .1 0 0zm.2.2s-.1-.1 0 0zm-.2-.1c.2.1.1 0 0 0zm.6 1.2c.2 0 0 0 0 0zm4.4 15.8c.1 0 0 0 0 0zm0 0c0 .4 0 0 0 0zm.3-1.9l-.1-.1v.1H7zm0 1.7zm-.1-.8l-.2-.2c0 .1.1.1.2.2zm0-2.2l-.2-.1.2.1zm0 .8c-.3.3 0 0 0 0zm0 0c0 .1 0 0 0 0zm-.1.1s0-.3 0 0zm0 0s0-.1 0 0zm-.2.4c.2 0 .1-.2 0 0zm-.1.7zm0-1.7c.4 0-.1-.7 0 0zm0 0c0 .1.1.2 0 0zm0 0s0 .1 0 0zm0-.5c.1 0 .2-.2.1-.2 0 .1 0 .2-.1.2zm.2.7c-.2-.2-.1.1 0 0zm-.4-1.3c-.6.1-.6-.4-1.1-.2.2.1.2.2 0 .2.4 0 .4.5.9.1l.2-.1zm.3.2v-.2.2zm-.5.5c.2.2.8 0 .4 0 0-.2 0-.4-.4 0zm.5 1.3c-1.3.6.2.2 0 0zm0 0c-.1 0-.2 0 0 0zm-.3-.5c-.4-.4-.2 0 0 0zm-4.4-15.3c-.4.1.1.1.2 0h-.2l.1-.1c-.1 0-.1.1-.1.1zM6 137.6c0 .1 0 0 0 0zm0 .1zm.6.1zm-.6-.3c0 .2 0 .1 0 0zM.2 112.6c-.1-.1 0 0 0 0zm2.1 16.6c.5.2.8.2 0 0zm3.9 9.1c.1 0 .1-.2 0 0zm-.7 1.6c.2.1 0 0 0 0zm0 0s0-.1 0 0zm.2-1.3c-.5.2.4.4 0 0zm0 .4c.1 0 0 0 0-.1v.1zm-.4-.3c.1 0 .1 0 0 0zm-.1-.7c.1.4 0 0 0 0zm.1.2s0 .1.1.1c-.1 0-.1-.1-.1-.1zm-.5-2c-.4-.4 0 0 0 0zm-.4.6s.2-.3 0 0zm-.3-.5c.1 0 .2.2.2 0-.1 0-.3-.2-.2 0zm-.1-2.8c-.1 0 0 0 0 0zm-1.4-2.1c.2-.4 0 0 0 0zm0 0c.2 0 .2-.2 0 0zm.3-.3zm-2.2-8.5c.2-.2 0-.2 0 0zm0-2.1c.2 0 .1 0 0 0zM0 119l.1.2c-.1-.4.2-.4-.1-.4v.2zm196.6-17.4v1.8c0-1.5-.5.6-.6 1 1-17.8-2.9-35.6-11.2-51.3 1.8-.7.9-2 .2-4l.2 1.1c-.6-2-1.7-3.5-2.3-5.3.3.5-.7-2.6-1.8-3.6 0 .4-.1 0-.2.8-.3-.4 0 0 0 0-.2-.4-.2-2.3.2-2.3.8 1.2 1.2 2 1.6 3.1-.2-.4-.3-1.6-.5-2.3l.4 1.2-1.7-5.8c.1.4.1 1.1 0 1.5.1.4.4.8.3 1.8h-.2c0 1-.4 2.4-.4 3.6l-.4-.9c-.8-1.6-.8-3.5-1.5-5.1.4.4-1.1 1.9-1.1 2.3v-.8s-1 .8-1 .4v-.5h-.6 1.7c-1 0-1-.7 0-.7v-.3.4-.3H176l.4-1h-.8s.8.1.4-.3c0 0 0 .4-.4 0 .4 0 .4 0 0 0 .4-.4 0-.4 0-.8l-.4-.4s-.8 0-.8-.4c0 0 .4 0 .4-.4-.4.4-1.2-.4-1.6-.4.4-.4.4-.4.4-.8 0 .4 0 .4-.4.4.8-.4-.4 0 0-.3 0-.4-1.6.3-1.2-.7h-.7l-.4.4.4-.4h-1.2l.8-.3s-1.6-.7-1.2-.7h-.4l.5-.5-.3.3V30l-.5.4c.8-.4 0 0 0 0 .4-.4.3-.2 0-.6-1.2.8 0 .2-.4.2h-.4c.8-1 .4-.6.4-1 0 0-.4.8-.8.4.4-.8.4-.4.4-.4h-.4s-.3.2-.3.5v-.4c0-.4 1-.4 1-.4v-.4c-1 0-2.3-1.4-2.7-1.4h.4c0-1-.8-1.5-1.2-1.8.4 0-.4-1.3-1.2-2.1-1.2-1.6-2.7-3.5-1.9-3.2-.4 0-1.2-1.2-1.2-2 .4 2.3-.8 0-1.2-.8.8.8 1.6.8 2.3 1.2-.4-.4-4.2-5-4.2-5l.8.8c-1.9.4-2-5.8-2-7v5.4s-2.3-1.2-3.1-1.2c-1.9-.4-5.6-1.6-6.4-2.7-1.6-.4-3.6-.8-5.1-1.6 1.2.8-3.9-.5-.8 1-.4 0-2.7-.1-1.6-.1h-.8s2.3.5 2.3.1c-2.7-.4-7.7-2.1-11.2-2.5.4 0 .4-.1.4-.5-1.2 0-2.7-.1-4.2-.1h1.9c-1.2-1-4.6 0-3.5 0h-2.7s0 .1.4.1l-6.6-1.3-3.5-.5 1.6.3c-17-2.7-33.2-.4-49 5.8 1.1-.2 1.8-.2 2.3-.6-6.2 1.6-12.8 5.4-17.5 8.1 3.5-2-3.9 2.7-2.7 1.9-4.2 3.1-8.1 6.2-12 9.7L30.8 31c-.4.4-3.5 3.5-2 1.6-7.8 9-17.6 22.5-20.7 32.6-1.2 2.7-1.5 5.4-2.5 8.5v-.4 2-.4c-1 1.2-1.1 3.1-.8 4.2-.4.8-1.5 7.7-.7 3.9-1.2 5.8-1.5 11.6-1.5 17.8v-.8c0 1.2.2 7-.6 7.7-.4.4-.2 1.6-.3 1.6.4.4 1.1 3.5.6 3.9 0 0 .1 0 .1-.1 0 .4.4 1.6.4.8.4 0 .3.4.3.4 0-.2-.4-.1 0 0l-.5-.8v1.1l.5 1.7H.7s.1.7.4.7c0 0-.1 0 0 0 0 0-.2-.2-.4-.2-.2.2.2.2.4.2 0 0-.3.4-.6 0l.1 1.2v1.2s1 .4.7.8l-.1-.4c.8 0 .4 2 1.5 2v.4l-1 .7c.4-.1.3-.2.7-.2-.1.8.3.6-.2 1 0 0 1.1 1.4.7 1.4h-.5c.2 0 .2 0 0 0 .4 0 1.3.9 1.4 1.3-.4-.4 0 0 0 0-.4 0-.8-.5-.4-.5-.8 0-.4.2-.8.2h-.7.8v2h-.2s-.4-.2-.4.2c.2 0 .2 0 0 0 .4 0 .5.2.5.2v1.6l.9.4c-.2 0 .4 1.5-.5.3l-.2.3h.4c-1 0-.1.1 0 .5-.4 0-.6 0-.4.4l.8.4c-.2 0-.4 0-.5.2.5 0 .9 0 1.4.4-.2 0-.2 0 0 .2-.3 0-1.8-.4-1.7-.4.4 0 0 .8.8.8l-.4-.4c.4 0 .8 0 1.2.4 0-.4-.7 1-.3.8.4 0 1.7-.4 1.7-.4v1.3H6c-.4 1-.4 0-.8 0h-.6c0 1 1.2.6 1.2.6l-.4 1.1s.8.7.4-.1c.4 0 1.6.8 1.6 1.1-.4.8-.4-.4-.8-.4-.8 1.2 1.3 1.2 1.3 1.9 0 .4-.3.4-.3.4v.2c1-.2 1.3 2.2 1.3 4.2h-.8c.8 0 .8.2.8 1.4-.4-1 .4 1 .4 1.7-.4-2 .8 1.4.8 1.4.4-.2 1.6 2 1.9 3l-.4-.4c.4 1.2 1.2 2.3 1.9 3.5l-.4-.4 1.2 2.5c-.4-.8 1.6 2.3 1.6 2.3h-.4c1.6 1 6.2 5.9 7 7.4.8 0 3.3 2.4 3.3 2.8l-.2-.4v.2c-3-2 2.1 2.3 2.1 2l1.1 1.2c.8.4.7.8.7.4l1.1 3.5c0-.8.4-2 .4-2.7l3.1 2.3-1.1-2.3c-.4-.4-1.5-1.2-1.5-1.2v-.8c-1-.8-.9-1.6-1.3-2 .8.4 3 3.4 4.2 4.5 0 .4 0 .4 0 0 .4.4.3 1.1.3 1.1h.4l.4.2v.8h.8-.8v.1c0-.4.6 0 .6.4 0-.2.5-.4.5-.4 0 .4.8.4.8.9-.4 0-.4 0 0 .8.4-1.2.8.1.8.4.4.4 1.6.8 2.7.8 0 .2 0 .4-.4.4 0 0 .4 0 0 .4l1.6.4c-.4.4-.4 0-.8.2.8 0 .3.4 1.1.4 0 0 1.1 1.2 1.1.8v.1l-.2 1.4h.8c-.4 0-.6-1-.6-1.4v.4s1.3 1 1 1h.4c-.4 0-.5.1-.1.3l.7-.7v.4c1-.4.3-.4.7 0l.3-.4v-.4c1 .3.5.2.1.4 0 0-.8 1.1-.7 1.1.3 0 .8 1.3.8.3h-.4c.4 0 .7-.7 1-.7 0-.4 0 1 .3.8.3-.4.8-1 .8-1.3v.4c0 .4-.4.4-.4.8.4-.4.4-.4.4 0l1.3-.4c0-.4.7.8.7 1.2 0 0 1 .3 0 .3 0-1 1 0 1.5 0-.4 1-.5-.3-.8-.3.2.4-.1.8-.1.5 0 .5.7.9 1.1.9h.9c.4 0 .4 0 0 0h1.2c.4 1 1.2 1 1.6.6.8-.4 7.3 3.8 10 4.9 3.5 1.6 6.9 2.3 10.7 3 1.2.4-2.3-.8-1.9-.8 0 0 1.9.4.8 0l2.3.8c1.2 0 3.5 1.2 4.6 1.6 3.5.8 7.2 1.6 10.8 1.6 6.9.4 13.9.8 20.5 0-.4 0-.8.5-1.2.3 1.2 0 3.1-.9 4.2.1h-.4c1.6-1 3.1-1.3 3.9-1.3-.4 0-1.9.3-2.3.7.8-.4 1.6-.5 2.3-.5h-.7l6.2-1h-.1l.8-.5 4.6-1.4-1.6.3s3.9-1.2 1.9-.8c6.6-1.2 13.9-5 19.7-8.5l-.4 1.4c.8-1.4 2.3-1.4 3.9-2.4h-.4c.8-2 5.4-4.1 7.7-5.2-.4 0 2.4-2.5 1.6-1.7-.4.8-1.6 2.9-2.3 2.9h-1s.6.5-.4.3c0 .4 0 .4 0 0v.8c0-.4 0 1-.4.3l.1.6h-.7v.3c0-.4-.7.8-.6.8h-.5s-.8.8-1.4.4l.4 1.2c-.4-.4-.8.4-.8.4h-.3s-.4-.2 0 .2c-.4-.4.1-.3.1-.1l.1-.7v.4l-1.3-.2c0 .2-.6.8-1 .2.4.8-.5 0-.4.4.4 1.2-.1 1.2 1.1 1.2l-.4-.4c.4.6.4 0 .4 0 .4 0 .6.2.6.4 0 0 1-1.2 1-.5v.2c0 1 0 0 0 0l.1-.7.9.1v-.4.6-.4s0 .4 0 0c0 0 .3 0 .3.4l.7-.8v.1s-.4-.3 0-.6c0-.4.4-.9.4-.9s0 .2.4.3c-.8-.9 0-.4.3-.4 0-.4-.4-.8 0 0 0 0 .9-2.1 1.9-1.6v-.6.4c0-.4-.2-.8.2-.4 0-.2 1.5-1.7 1.9-2 0 .2 0-.4.7 0-.8-.4.8-1.6 1.5-1.6-.4-.4-.4-1.2.8-1.7-.4 1.2-.4.4-.4.4-.4 0-.4.5-.4.6.4-.2.4 0 0 1h.4c-.4-1 .2-1.7 1.2-1.7-1 0 0-2 0-.8v-.4c-1.2 0-.6 0-.2-.3 1.2-1.2 3-3.9 3.4-3.9s.7-.8 1.1-1.2c.8-1.2 1.9-3.1 2.3-3.5h.8c0 .4.4 1.6.2 1.6h.5v1h-.5c-.4 0 0-.9.4-.9-.4 0-.4-.7-.4-1 1.2 1 3.5-5.7 3.9-5.1-.4-.8 1.2-2.4 1.6-2-1.2-.3 1.2-3 1.2-2.4.2 0 .4-1.2.8-2.4.8 0 .8-.5.8-.4 0 .4-.4.4-.7.8.4-1.2 1.2-2.7 1.6-3.1 0 0 0 .4-.4.3 5.8-8.1 9.6-17.4 12.4-27 .5.8 1.2 1.6 1.6 2.6 0-.8-.4-3.1.4-3.4-1.4-1.4.4-7.7.9-10-.4 2.7 0-.8 0-.8.4-.4 2-9.7 1.2-12l-2.8-1.1zM1.1 122.1c0-.1-.2-.2-.1-.2h.1v.2zm1.5-44c0 1.2-.7 2.2-1 3.4l.2-2c0 .4.6-3.5.4-1.2 0-.4.4-.8.6-1.6-.4 2-.2 2.7-.2 1.6v-.2zm-.7 49zm.4-.5c.6.3-.8.3 0 0zm-.1.5c.5-.3.8-.1 0 0zm2.2 4.2c0 .2.1.3.2.4-.1-.1-.2-.2-.2-.4zm.3 1v-.4l.3.8-.3-.8v.4zm.3.7s.1 0 0 0zm3.3 8.2s.1 0 0 0c.6 0-.3 0 0 0zm-1-3.1c-.2-.8.1-.4 0 0zm-1.3 0s-.1 0 0 0zm.2 0h.4v-.4l-.4.4zm.4.3v-1.2l-.6-.4c0-.4.3-2.7-.1-3.9 1.2 2 1.5 3.2 1.5 4.8 0 0 .7.3.7 1.3h-.4c-.4 0-.4-1-.4-1.4.4.4.4.4.4 1.4H6.6v-.6zm1.1.4c0-.4 0-.4-.4-.8l.4.8zm.4 0s.7.4 0 0zm.5 1.2v.4c-1-1.2 0-.8 0-.4zm-.1.4c.3-.4.7 0 0 0zm.3.8s-.3 0 0 0zm.4 0c0 .8 0-.4 0 0zm.4.8c0-.4 0-.4 0 0 0 0 0-.8 0 0zM22 159.7s0-.4 0 0zm0-.4s0-.4 0 0zm-4.6-4.3s-.8-.7 0 0zm-6.2-6.9c-.4-.8 0-.8 0-.4.8 1.2.4.8 0 .4zm.4 1.4l-.4-.3c-.4-.4-.4-.4-.4-.7 0 .4.4.4.4.8l-.4-.4c1.2 2.3-.4.1-.4.7l1.2-.1zm.7-2.9l.4.4v-.4h-.4zm.4.7h.4c0 .4 0 .4 0 0h-.4zm1.5 1.9c0-.7-.4-1.1-.8-1.5.8 0 1.2 1.5 1.2 1.9-.4-.8-.4-.7 0-.4h-.4zm.4.5c0-.4.4 0 0 0zm.2 0c.3.4.8.8.8 1.2l-.8-1.6v.4zm.6.3c0 .4 0-.3 0 0zm.8 2.4l-.4-.8c.4 0 .4.4.4.8zm.4 0c.4 0-.4-1.2.4-.8.8.4.4.4.4 1.2l-.4-.8-.4.4zm6.5 10c-.4-.4-.8-1.2-1.2-1.2-1.6-2.3-2.7-3.3-4.2-5.6.8.4 0-.5.4.5h.4l-.4-1.3.8.7c-.4 0-.4-.3 0 .7h-.4c.4 0 .1.5 1.1.5v-.8 1.2-.4c1 .8 1.4 1.2 2.2 2 0-.4.6.6 1.4 1.6h-.4c.4 0 1.2.4 1.6.8-.4 0-.4.2-.4.2l-.9 1.1zm-5.5-7.7v-.4.4zm7 9.6l-1.1-1.2.8.8c.8.4 1.5.8 1.5 1.6.4.4-1.2-1.2-1.2-1.6v.4zm2 2s-.4-1.2 0-.4h.4c.4 0 0 0 0 0l-.4.4zm0-135.2l.8-1.2.8-1.2c.8.4.4 1.2-1.6 2v.4zm7-7.3l.4-.4v.4h-.4zm-.8 149.4c.4 0 0 0 0 0zm.8-.4c0-.4.4 0 0 0zm.4 1.3h.4-.4zm1.1.3c.4-.4 0 0 0 0zm.4 0c0-.4 0 0 0 0zm3.1 1.9h.4v-.4l-.4.4zm.4-.4v-.4h.4l-.4.4zm2.7 2.3c0-.4.4-.4 0 0zM145.8 8.4s-.1 0 0 0zM123.5 3c3.8.4 5.8 1.7 9.5 1.8-.4-.2-1.6-.9.1-.1l.6.3h-.2c1.6 1 4.2-.2 5.2.8V6c3 .8 7.1 1.5 8.2 4.2-1.9-.4-4-.8-5.9-1.6l1.1.1c-1.6-.6-3.5-.6-5-1.4 0 .1-.4 0 .4-.3l-.8-.4v.1c0 .2-1.2 0-1.6-.1.4 0 .2-.1.6-.2L134 6c1.2.4-2.4-.4-3.1-.7 1.2-.2 0 0-.8-.3-2.3-.8-4.2-1.3-6.6-1.7l-3.1-.5h1.6l1.5.2zm6.9 2.3c-.3-.4 0 0 0 0zm-3.6-1.2c-1.2 0-4.2-.4-4.8-1.2l2.3.4s1.6.4 2.3.4l.2.4zm-5.5 77h.2l2.3-2.2c.8-.8 1.9-.1 2.3.6.4.4.8 1.1.4 1.9-1.2 1.6-2.3 2.7-3.5 3.8.8 2.7 1.9 5.4 3.1 8.1.8 1.6-2.3 3.1-3.1 1.2-1.6-2.3-2.7-5-3.9-7.3-1.9 1.6-3.5 3.1-4.6 5-1.2 1.6-3.9.4-3.1-1.6 1.6-3.1 3.5-5.4 5.4-7.7l-2.7-6.2c-.8-2 2.3-3.1 3.1-1.2l1.2 2.7c.4 0 1.2.7 1.6 1.5l1.3 1.4zm-10.4-79c2.3 0 7.2-.3 8.7 1.1l-3.6-1 .5.3-1.1-.2c.6 0 1 .2 1.4.2-2.2-.4-4.5-.5-6.8-.8l.9.4zM74.3 3.2c2-.4 4.8-1.3 7-.9l-7.5 1.9.8-.8c-.1 0-.3.1 0 0l-.3-.2zm-20 7.9c.1 0 .1-.2.1-.2 2-1.3 4.2-2.3 6.4-3.3l-8.3 4.5 1.8-1c-.3 0-.4 0 0 0zm36.4 35.6c-2.3 5.4-3.5 10.9-3.5 16.5l.4 12c.4 5.8 1.6 11.6 1.9 17 1.2 7 1.9 14.3 1.2 21.2-.4 5.4-1.6 10.4-3.1 15.8l-.2 17c.8.8.2 1.6.2 2.3v6.6c0 .4 0 .8-1 1.2v1.8c0 2-2.8 2-2.8 0l-.2-4.8v-.4c-1 1.6-2.8 2-3.2 0l-3.9-11.6c-1.9-2-3.9-4.6-5-7.3-3.5-7.3-5.4-15.8-8.5-23.6-5-15-11.2-30.5-13.9-46.3 0-1.2 1.2-2 2.3-1.6l-.8-2c-.8-2 2.3-3.5 3.1-1.2l.8 2c.8 0 1.2.4 1.6.4 0 0 .4 0 .8.4 2.3.8 3.1 4.2 3.9 6.6 1.2 3.1 2.3 6.2 3.1 9.7l7.1 22.4L82.7 139v-.8c0-.4 0-1.2 1-1.2v-19.7c-1 0-1.6-.8-1.6-1.9 0-24.7-1.2-43.6-1.6-68.3 0-2 3.1-4.2 3.1-2.3.4 1.6 1.9-.8 1.9.8.8-1.2 4.2-1.2 3.1.4-1.2 2.7-.8 3.5.4 4.2.4-.8-.4-2 0-2.7 1.2-2 5.4-.4 4.2 1.6l-2.5-2.4zM93.4.8c.4-.2 1.2-.1 1.6.1-.8 0-1.6.1-2.7.2.4-.4 1.2-.4 1.6-.4l-.5.1zm10 128l-.7 22.3c0 1.1-1.1 1.7-2.1 1.7v.8c0 2.3-3 2.3-3 .4v-8.8c-1-5.8-.6-12 .2-18.2l.9-6.6c-.4-3.9-.7-7.7-.7-11.6-.8-3.1-1.4-6.2-2.6-9.3-.4-2 2.2-3.1 3.2-.8v.4c0-.4 1.2 0 2 0 0-2 3-3 3 0 1 0 2.4.4 2.4 1.6 1.6 10.4-.3 20.1-1.9 30.1l-.7-2zm4.7-50.8c-.6 1.3-1.3 2.5-2.2 3.6l-1.7 2.9c1.2 2.5 1.9 5 2.3 7.5.4 1.4-1.6 3.1-2.7 1.7l-1.2-1.6c-.8.4-1.6 0-1.6-.8l-.4-1.6c-1.2 1.6-3.1 2.7-5 3.5-1.6.8-2.3-1.6-1.6-2.7 1.9-2 3.7-3.9 5.2-5.8l-1.8-5.8v-1.2c0-1.6 2.2-3.1 3.3-1.2l2.4 5.4h.9l.4-.8c.8-.8 1.2-1.7 1.6-2.9.8-2 3.9-.5 3.1 1.5l-1-1.7zm4.5 74.3c-1 1.8-3.3 1.6-3.2-.2.6-11.8 3.1-23.3 4.2-35 .3-3.5.6-6.8.5-10.3 0-1-.2-2.1-.2-3.2-.6-.4-1.2-.8-1.6-1.4-.8-1 .4-2.3 1.6-2.5.8-.1 1.2-.1 1.9 0 .8-.6 1.2-.8 1.9-.7l.4-.6c.4-1.6 2.7-1.7 3.1-.2l1.2 2.5.8-1.2c1.2-1.7 3.9.6 2.4 2.2-2.3 3.3-4 7-5 11v.5c-3 13-4.7 27-6.6 40h-1.4v-.9zm30.2-47.4l-1.2 2c-.1.6-.4 1-.8 1.3-.8 1.3-1.4 2.6-2 3.9-3.5 12.8-8.2 25.3-14 37.3-.2.4-.4.7-.8.8-.8 2.6-1.7 5.1-2.5 7.7-.4 1.3-2 1.4-2.8.8-1.2.3-2.6-.9-1.9-2.3l9.9-25c2.6-9 4.4-18.3 5.7-27.7 0-.2 0-.3.1-.4-.4-.5-.6-1-.8-1.6-.8-2 2.3-2.9 3.1-1l.3.5c.1 0 .2 0 .3.1 1 .5 1.9 1 2.9 1.7.4-.4 1.2-.4 1.9.4 1.2-1.2 3.5 0 2.7 2l-.1-.5zm4.1-18.2l-1.9 1.6c-1.2 1.4-2.6 2.7-4 4 .8 2 1.6 4 2.4 5.8.8 1.7-1.9 3-2.9 1.4l-2.7-4.5-3.9 3.2c-1.2.9-2.7.5-3.1-1-.4-2.7 2.7-4.2 4.6-5.8-1.2-2.1-2.3-4.3-3.1-6.6-.8-1.4.8-2.2 1.9-2l-.4-1.2c-.4-2 2.7-3.1 3.1-1 .4 2.7 1.2 5.3 1.9 7.9l3.1-2.3 1.9-2.3c.8-1.2 2.7 0 2.7 1.2 0 .8 0 1.6-.8 2l1.2-.4zm.7-72.6l-1.2-1 1.6 1.2c-.3-.2-.4-.3-.4-.2zm1 .7c.4.2-.8-.8 0 0zm.8-4c.4.2-2.7-1.2-3.1-2.1.8.2 1.6.6 2.3 1 1.6.6 3.5 1.4 4.2 2-.8-.1-1.6-.3-3.1-.7l-.3-.2zm2.7 3.4c1.2 1-.4 0 0 0zm.4.8c1.6.8 1.6 1.1.8.8.4-.1-.4-.8-.4-.8h-.4zm3.1 2.2v.2c0-.5-.2.2-1.4-.8 0 .1-.1 0-.5-.5-.4-.8.3 0 .7 0h1.2v-.8l-1.6-1.6c.8-.4 1-.4 1 0 .4.4-.2.4.2.4h-.4c.4 0 1.8 2.4 1.8 2v.4l-1.1-.8.8.8-.7.7zm0 .5c0-.1 0 0 .4.2v-.2h-.4zm1.9.7c.4.7.4 1.1 0 0zm1.1 2.2v-.2c-.3 0-.4-.8-.7-1.2.8.8 1.2 1.2 1.6 2 .4 0 0 0-.4-.4l-.5-.2zm1.3-3c0-.1 0 0 0 0zm-7 165.5c.4.1 0 .1 0 0zm.7 1.1v-.2.2zm.8-.1c0-.4 0-.4.4 0v-.4s0 .4 0 0l-.4.4zm.4-.4c0-.4 0 0 0 0zm1.6-2.4c.3.4 0-.4 0 0zm1.9 0c0-.4 0-.4 0 0zm1.9-2.3c.8-.4 0 0 0 0zm.8-.4c-.4-.4.4-.4 0 0zm1.9-3.8c0 .4-.4.4 0 0zm-.4 3.3h.4-.4zm0-2.2c0-.4.4-.8.8-.8l-.8.8zM170.2 30c0-.4 0-.4 0 0zm0 0s.4 0 0 0zm0 0c0-.4.4 0 0 0zm0 0c0-.4 0-.4 0 0zm-.3-.8c0-.4 0 0 0 0zm-1.2-1.1c-.4 0 0-.4 0 0zm-.7-1.2c.3-.4 0 0 0 0zm.3.8c-.4.4.8 0 0 .4-.8-.4-.8-.4-.4-.4h.4zm-.3-1.2c-.4 0-.4.4-.8.4s.4-.4.8-.4zm0 .8s0-.4 0 0zm-1.6-2.6h1.2c0-.3-.4-1.2 0-.8l-1.2.8zm0 149.3c.4-.4 0 0 0 0zm-1.2-.4c.4-.4.2-.4-.2-.4l.6-.8v.4s1.4-2.3 1.4-1.6c.8-1.2 1.9-2.3 2.2-2.3 0-.4-2.8 3.1-3.5 4.2l-.5.5zM169 28.3h.5s.7 1.1.7.7c-.4.8-1.9-1.2-1.2-1.2v.5zm2 .2c0-.4.4 0 0 0zm.3 1.4s-.3-.6 0-.6l1.6 1.1-1.1-.5h-.5zm1.3 1.3c0-.4.4-.4 0 0zm11.5 12c-.3-.4-.3-.8 0 0zm-3.8-3.5c0-.4 0-.4 0 0zm-.4 117.4c.4-.4 0 0 0 0zm.1 0c.3 0 0 .3 0 .3h.2-.4l.9-.8-.7.5zm-2-117.8s0-.4 0 0zm-2.9 123.2c.6 0 0 0 .6.4v-.4s.3.4.3.8c-.8-.4-.4-.4-.8-.4l-.4.4v-.4c0-.4 0-.4.3-.8v.4zm-1-128.2c0 .4-.4-1.2 0 0zm1.8 130.1c-.4-.4-.5-.8-.8-.4l.4.8c-.2-.4-.6 0-.8.4.1 0 .4 1.2 0 1.6-.6-.4-.6-.1-.2-.5-.4 0-.4-.1-.4-.1h-.4s.4-.7.4-1.1.4-1.7.8-2.1c0 .4 1.9 1.1.4.7l.6.7zm1.4-2.7c-.4-.4 0 0 0 0zm1.3-1.9v.4s-1.3 1-.9 2h-.4l.4.2c-.4 0-.5-.7-.9-1.1-.8.4.9.1-.1.1v.8s-.6.4-1 .4l.3 1.4-.5.3h.3v-.9c0 .4.4.8.4 1.2-.4 0-.3 0-.3.4-.4-.4-1.1-1.6-1.1-1.2v-.4l.9-1.2c-.4 0 0 0 0 0l.7-.8c.4 0 1 0 .6.4l1.6-2zm0-.8v-.4.4zm0 0v-.4.4zm0-.4c.2.4 0 0 0 0v-.4.4zm.3.4c-.3.4 0 0 0 0zm.3-.8h-.4.4zm0 .1c-.4 0 0-.4 0-.4h-.4l.4.4zm0-.5c.4 0-.4-.8-.4-.4h-.4v-.3c.3-.4.4 1.2 0 .4l.8.3zm0 .1c0-.4 0 0 0 0zm.7-120.5c0-.4 0-.4 0 0zm.8 2.3c-.4.4-.4.9-.8-.4h.4l.4.4zm.4.8c-.4 0-.4-.4 0 0zm0 0s0-.4 0 0zm1.5 1.5l-1.3-3.5s-.1.4-.5.4c0-.4.2-.4-.2 0 .4 0-1-2-1-2.3v-.4c-1-.4-1-.4-.6-1.2 0 0 .7 1.2 1.1 2.3-.4-1.6-.8-2.3.3.4l-.3-.4.5 1.2v-.4l1.8 4.7c-1.9-2.7-.1-.7-.5-.7h.7V42zm-.3 1.3c.4.3.8 1.2.8 1.6-.8-1.2-1.6-2.9-1.2-1.6h.4zm1.1.7l-.8-1.2c1.6 2.7.2.8-.2 0 .4.8.2.8.2.8v.4l-.6-.8c-.4-.4-.9-1.2-.9-1.6.8 1.2 0 0 .4.8-.4-.8 0-.4 0-.4s.5 0 .6-.4l.6.4c0 .4 0 0 0 0v.4c0 .4.2.8-.2.8l.9.8zm.5.9v.7c-.3 0-.5-.7-.5-.7h.5zm-.1 1c0-.4 0 0 0 0zm0 .4c.4 1.1 0-.4 0 0zm.8 1.5c-.4-.7 0-.4 0 0zm0 .4v-.4c-.4-.8.4.4 0 0v.4zm-158 122.5s0 .1-.1.1l.1-.1zM81 145.3l.3 1.1c0-.4-.1-.7-.2-1l-.1-.1zM56.4 79l-4.1-11.7c2.8 13.3 7.7 26.1 12.2 39l.6 1.8-8.9-27.7c-.1-.5-.1-1 .2-1.4zM4.2 134.1H4h.2z" />
    </clipPath>
  </defs>
</svg>
