<?xml version="1.0" standalone="no"?>
<!DOCTYPE svg PUBLIC "-//W3C//DTD SVG 20010904//EN"
 "http://www.w3.org/TR/2001/REC-SVG-20010904/DTD/svg10.dtd">
<svg version="1.0" xmlns="http://www.w3.org/2000/svg"
 width="512.000000pt" height="512.000000pt" viewBox="0 0 512.000000 512.000000"
 preserveAspectRatio="xMidYMid meet">
<metadata>
Created by potrace 1.11, written by Peter Selinger 2001-2013
</metadata>
<g transform="translate(0.000000,512.000000) scale(0.100000,-0.100000)"
fill="#000000" stroke="none">
<path d="M2290 4914 c-123 -15 -181 -24 -202 -30 -9 -3 -25 -6 -35 -8 -241
-48 -571 -187 -793 -335 -359 -238 -638 -554 -825 -936 -118 -239 -179 -435
-221 -707 -26 -167 -25 -562 1 -698 3 -14 7 -38 10 -55 9 -53 14 -79 25 -123
6 -24 8 -47 5 -53 -4 -5 -2 -9 3 -9 6 0 13 -12 16 -27 14 -58 39 -139 54 -173
8 -19 16 -47 16 -61 1 -15 3 -25 5 -23 8 7 41 -68 35 -77 -3 -5 -1 -9 5 -9 9
0 27 -40 22 -49 -2 -2 1 -7 6 -10 4 -3 26 -40 47 -81 22 -41 54 -98 73 -127
18 -29 33 -57 33 -63 0 -5 5 -10 12 -10 6 0 9 -3 5 -6 -3 -3 3 -14 14 -25 11
-11 17 -25 13 -31 -4 -6 -3 -8 2 -5 5 3 21 -11 34 -31 14 -20 35 -47 47 -60
13 -14 20 -28 17 -33 -3 -5 2 -9 10 -9 9 0 16 -4 16 -8 0 -7 63 -78 130 -148
17 -17 27 -34 23 -39 -5 -4 -3 -5 4 -2 6 4 21 -5 32 -19 12 -15 21 -23 21 -18
0 4 16 -9 35 -29 19 -20 38 -37 41 -37 4 0 17 -11 30 -26 13 -14 24 -21 24
-17 0 4 4 4 8 -2 9 -13 74 -62 137 -105 28 -19 52 -36 55 -40 3 -3 16 -11 30
-18 14 -7 43 -23 65 -37 22 -13 65 -37 95 -52 30 -15 58 -31 61 -36 3 -5 9 -8
13 -8 20 3 26 0 21 -9 -3 -6 1 -7 9 -4 9 3 16 1 16 -6 0 -6 5 -8 10 -5 6 3 10
1 10 -5 0 -6 4 -9 9 -6 10 7 83 -22 92 -36 3 -5 8 -8 10 -6 9 7 108 -26 102
-35 -3 -6 -2 -7 4 -4 15 9 94 -14 86 -26 -3 -6 -1 -7 6 -3 7 4 20 5 29 1 9 -4
35 -9 57 -11 21 -3 41 -8 45 -12 3 -4 20 -8 39 -10 19 -1 41 -8 50 -15 8 -7
12 -7 8 -1 -4 8 15 7 66 -2 40 -6 75 -10 80 -7 4 2 7 0 7 -4 0 -5 14 -8 32 -7
20 1 37 -4 45 -14 11 -15 12 -15 8 -1 -4 12 0 15 17 13 13 -1 40 -3 61 -3 28
-1 36 -5 31 -14 -6 -9 -4 -9 7 1 7 6 19 12 27 12 8 0 10 -5 6 -12 -6 -10 -4
-10 7 0 17 16 101 16 118 -1 11 -9 13 -9 7 0 -5 9 4 13 31 14 68 2 107 6 143
12 19 4 53 9 74 12 21 3 50 8 64 12 20 5 23 3 17 -8 -7 -11 -5 -11 10 1 10 8
25 15 34 16 9 0 23 4 31 7 8 4 31 8 50 9 19 2 37 5 40 8 3 3 25 11 50 18 56
16 61 17 82 27 10 4 29 8 42 9 13 0 22 3 20 5 -3 4 41 23 81 35 6 2 28 11 50
21 22 11 42 19 45 20 3 0 26 11 52 23 26 13 53 20 59 16 7 -4 9 -3 6 4 -9 13
120 85 139 78 8 -3 11 0 8 8 -4 11 47 44 53 34 1 -1 9 6 17 17 9 11 16 16 16
10 0 -6 3 -6 8 1 4 6 34 30 67 55 61 45 89 67 109 84 81 72 110 94 117 89 5
-3 6 3 2 12 -5 13 -3 16 10 11 9 -3 16 -3 14 2 -1 4 32 44 73 89 41 44 89 97
105 118 17 21 38 45 48 53 9 9 17 21 17 28 0 6 8 18 19 25 10 7 20 18 22 23 2
6 8 9 12 7 5 -1 6 1 3 6 -7 12 23 54 35 47 5 -3 6 0 3 8 -3 8 2 21 10 30 8 8
12 18 8 22 -4 5 0 6 9 2 13 -4 16 -1 11 15 -4 17 -2 20 11 15 11 -4 14 -2 10
9 -3 8 3 24 12 34 10 11 14 20 10 20 -4 0 -1 8 7 18 9 9 19 27 22 40 4 12 11
22 15 22 4 0 8 6 8 13 1 23 50 107 58 99 5 -4 5 -2 2 4 -6 11 22 96 36 110 4
4 7 16 7 27 0 14 5 17 18 12 14 -5 15 -4 5 6 -15 15 -17 33 -3 24 6 -3 7 1 4
10 -4 8 -2 21 4 28 5 6 15 38 22 69 7 32 16 55 21 53 4 -3 5 3 2 14 -3 10 0
22 5 25 6 3 8 16 4 28 -3 11 -1 19 4 16 5 -4 9 4 10 15 0 12 4 38 8 57 3 19 9
49 11 65 3 17 7 41 10 55 21 107 28 485 12 620 -9 79 -37 242 -42 250 -2 4 -6
17 -8 31 -27 144 -114 379 -207 556 -235 448 -600 804 -1055 1028 -264 130
-501 198 -815 234 -106 12 -387 9 -500 -5z m197 -328 c-4 7 0 14 8 18 8 3 15
0 16 -7 0 -7 2 -8 5 -1 4 10 106 10 219 0 28 -3 65 -6 83 -8 17 -1 32 -5 32
-8 0 -3 12 -6 28 -6 67 -2 73 -4 66 -16 -6 -10 -5 -10 8 -1 8 7 17 10 20 8 3
-3 16 -8 29 -11 40 -9 54 -12 54 -14 0 -1 9 -3 20 -5 76 -13 177 -49 167 -60
-4 -4 -2 -5 4 -2 14 8 62 -8 159 -54 39 -18 72 -33 75 -34 5 -1 28 -14 85 -47
17 -9 38 -20 48 -24 9 -3 17 -10 17 -15 0 -5 7 -9 16 -9 10 0 14 -6 11 -15 -4
-8 -1 -17 5 -21 7 -4 8 -3 4 4 -10 17 11 15 40 -5 19 -12 22 -18 12 -25 -9 -7
-8 -8 5 -4 12 4 30 -3 49 -19 16 -14 34 -25 39 -25 5 0 9 -7 9 -15 0 -8 4 -14
8 -12 24 7 276 -238 265 -257 -3 -6 -3 -8 2 -4 8 8 25 -8 61 -57 10 -15 31
-41 46 -58 15 -18 26 -37 23 -44 -2 -7 1 -15 7 -19 7 -4 8 -3 4 4 -4 7 -5 12
-3 12 8 0 76 -108 117 -186 33 -61 39 -79 28 -86 -10 -7 -9 -8 4 -4 16 5 34
-14 37 -37 0 -4 8 -24 16 -44 9 -20 13 -43 11 -50 -3 -7 0 -12 7 -10 7 1 12
-8 11 -20 0 -13 3 -23 7 -23 12 0 31 -68 23 -81 -4 -7 -3 -9 2 -6 9 5 29 -46
38 -94 1 -8 8 -34 15 -59 10 -32 10 -49 2 -62 -8 -13 -8 -16 2 -12 8 3 14 -1
14 -8 0 -7 4 -26 7 -43 4 -16 9 -52 12 -80 3 -27 8 -53 11 -57 2 -5 -2 -8 -9
-8 -10 0 -11 -2 0 -8 9 -6 13 -46 14 -143 2 -121 -8 -324 -17 -338 -1 -3 -6
-28 -9 -56 -4 -27 -21 -104 -38 -170 -153 -596 -573 -1093 -1138 -1349 -75
-34 -229 -91 -270 -101 -8 -2 -42 -10 -75 -18 -96 -25 -215 -45 -306 -53 -46
-4 -95 -8 -109 -9 -14 -1 -31 2 -37 8 -8 6 -13 6 -13 0 0 -13 -43 -11 -52 2
-5 6 -8 5 -8 -2 0 -8 -13 -11 -37 -8 -21 2 -78 6 -128 10 -312 23 -679 155
-955 344 -391 267 -688 676 -815 1122 -8 31 -17 65 -19 75 -2 11 -9 37 -15 59
-6 23 -13 61 -16 85 -3 25 -7 52 -10 60 -15 59 -26 347 -13 373 6 11 5 17 -2
17 -6 0 -9 4 -6 8 3 5 8 42 11 83 3 40 12 77 18 81 9 6 9 8 -1 8 -7 0 -11 4
-8 9 3 5 8 25 10 45 8 58 18 110 24 121 3 5 7 21 9 36 1 15 8 39 14 55 14 33
15 40 17 72 1 13 6 21 11 18 5 -3 9 0 8 7 0 6 1 21 2 32 1 17 3 18 12 5 9 -13
10 -12 5 3 -7 22 47 160 59 150 4 -4 5 -3 1 4 -7 13 19 73 36 84 5 3 9 9 9 13
-3 20 0 26 10 20 7 -4 10 -1 7 7 -6 15 27 76 52 97 8 8 9 11 1 7 -9 -5 -8 1 4
19 15 22 20 24 34 14 14 -12 14 -11 3 4 -15 19 -7 42 10 32 7 -5 8 -2 3 6 -5
8 1 20 16 32 13 11 17 17 9 13 -8 -4 -6 1 4 9 11 9 16 16 10 16 -5 0 -2 6 6
13 8 7 20 21 27 32 6 11 16 19 22 18 6 -2 10 3 8 10 -1 6 6 11 16 11 9 -1 17
2 17 7 0 5 -5 9 -12 9 -7 0 3 16 22 35 18 19 38 31 43 28 6 -4 7 -1 2 7 -5 8
13 32 54 71 33 33 63 59 65 59 3 0 17 12 33 28 65 62 85 75 95 61 7 -11 8 -10
6 3 -2 11 17 31 52 57 30 22 61 45 68 52 7 6 20 8 28 5 8 -3 13 -2 9 3 -5 10
64 58 78 53 4 -1 7 2 7 6 0 5 12 14 27 21 21 10 28 9 36 -1 6 -10 8 -9 4 4 -4
12 3 20 26 29 18 7 38 12 44 12 7 0 11 3 8 7 -6 10 51 31 59 23 3 -4 6 -1 6 6
0 8 6 11 16 7 8 -3 13 -2 10 3 -3 5 6 12 22 17 31 9 32 9 52 17 76 29 110 38
121 32 8 -5 10 -4 5 3 -5 8 0 12 13 12 12 0 22 -1 24 -2 1 -1 13 4 26 11 13 7
40 14 61 16 21 2 44 6 50 10 5 3 32 8 58 10 26 2 47 5 47 6 0 1 14 3 30 4 17
2 30 4 30 5 0 1 24 3 54 6 30 2 56 6 59 9 3 3 14 -3 25 -12 11 -10 17 -13 14
-7z"/>
<path d="M2575 4591 c-3 -5 -2 -12 3 -15 5 -3 9 1 9 9 0 17 -3 19 -12 6z"/>
<path d="M2419 4588 c-5 -18 -6 -38 -1 -34 7 8 12 36 6 36 -2 0 -4 -1 -5 -2z"/>
<path d="M2539 4588 c-5 -18 -6 -38 -1 -34 7 8 12 36 6 36 -2 0 -4 -1 -5 -2z"/>
<path d="M2655 4581 c-3 -5 -2 -12 3 -15 5 -3 9 1 9 9 0 17 -3 19 -12 6z"/>
<path d="M2373 4565 c0 -8 4 -12 9 -9 5 3 6 10 3 15 -9 13 -12 11 -12 -6z"/>
<path d="M2773 4551 c0 -11 5 -18 9 -15 4 3 5 11 1 19 -7 21 -12 19 -10 -4z"/>
<path d="M2895 4551 c-3 -5 -2 -12 3 -15 5 -3 9 1 9 9 0 17 -3 19 -12 6z"/>
<path d="M2160 4540 c-12 -7 -10 -9 7 -7 12 0 19 5 17 9 -6 10 -6 10 -24 -2z"/>
<path d="M2215 4540 c-5 -8 42 -7 49 1 3 3 -6 5 -20 5 -14 0 -27 -3 -29 -6z"/>
<path d="M2326 4538 c3 -5 10 -6 15 -3 13 9 11 12 -6 12 -8 0 -12 -4 -9 -9z"/>
<path d="M2613 4535 c0 -8 4 -12 9 -9 5 3 6 10 3 15 -9 13 -12 11 -12 -6z"/>
<path d="M2094 4516 c1 -8 5 -18 8 -22 4 -3 5 1 4 10 -1 8 -5 18 -8 22 -4 3
-5 -1 -4 -10z"/>
<path d="M2015 4511 c-3 -5 -2 -12 3 -15 5 -3 9 1 9 9 0 17 -3 19 -12 6z"/>
<path d="M3030 4505 c0 -7 30 -13 34 -7 3 4 -4 9 -15 9 -10 1 -19 0 -19 -2z"/>
<path d="M2150 4496 c0 -2 8 -10 18 -17 15 -13 16 -12 3 4 -13 16 -21 21 -21
13z"/>
<path d="M2993 4475 c0 -8 4 -12 9 -9 5 3 6 10 3 15 -9 13 -12 11 -12 -6z"/>
<path d="M3175 4471 c-3 -5 -2 -12 3 -15 5 -3 9 1 9 9 0 17 -3 19 -12 6z"/>
<path d="M1896 4462 c-3 -5 1 -9 9 -9 8 0 12 4 9 9 -3 4 -7 8 -9 8 -2 0 -6 -4
-9 -8z"/>
<path d="M1939 4468 c-5 -18 -6 -38 -1 -34 7 8 12 36 6 36 -2 0 -4 -1 -5 -2z"/>
<path d="M3233 4435 c0 -8 4 -12 9 -9 5 3 6 10 3 15 -9 13 -12 11 -12 -6z"/>
<path d="M3273 4435 c0 -8 4 -12 9 -9 4 3 8 9 8 15 0 5 -4 9 -8 9 -5 0 -9 -7
-9 -15z"/>
<path d="M1813 4409 c-2 -23 3 -25 10 -4 4 8 3 16 -1 19 -4 3 -9 -4 -9 -15z"/>
<path d="M3339 4428 c-5 -18 -6 -38 -1 -34 7 8 12 36 6 36 -2 0 -4 -1 -5 -2z"/>
<path d="M1630 4319 c0 -5 5 -7 10 -4 6 3 10 8 10 11 0 2 -4 4 -10 4 -5 0 -10
-5 -10 -11z"/>
<path d="M1539 4308 c-5 -18 -6 -38 -1 -34 7 8 12 36 6 36 -2 0 -4 -1 -5 -2z"/>
<path d="M1496 4258 c3 -5 10 -6 15 -3 13 9 11 12 -6 12 -8 0 -12 -4 -9 -9z"/>
<path d="M1455 4240 c-3 -5 -1 -10 4 -10 6 0 11 5 11 10 0 6 -2 10 -4 10 -3 0
-8 -4 -11 -10z"/>
<path d="M1354 4182 c4 -3 14 -7 22 -8 9 -1 13 0 10 4 -4 3 -14 7 -22 8 -9 1
-13 0 -10 -4z"/>
<path d="M3726 4182 c-3 -5 1 -9 9 -9 8 0 12 4 9 9 -3 4 -7 8 -9 8 -2 0 -6 -4
-9 -8z"/>
<path d="M3856 4102 c-2 -4 -1 -14 4 -22 7 -11 9 -9 7 8 -1 24 -3 26 -11 14z"/>
<path d="M1215 4071 c-3 -5 -2 -12 3 -15 5 -3 9 1 9 9 0 17 -3 19 -12 6z"/>
<path d="M1115 3980 c-3 -5 -1 -10 4 -10 6 0 11 5 11 10 0 6 -2 10 -4 10 -3 0
-8 -4 -11 -10z"/>
<path d="M3999 3973 c-13 -16 -12 -17 4 -4 16 13 21 21 13 21 -2 0 -10 -8 -17
-17z"/>
<path d="M1094 3938 c-4 -7 -4 -10 1 -6 4 4 15 2 24 -5 14 -11 14 -10 2 6 -16
20 -18 21 -27 5z"/>
<path d="M800 3570 c0 -4 4 -10 9 -15 5 -6 23 -37 41 -70 18 -33 40 -71 49
-85 14 -21 14 -23 1 -17 -8 5 -5 0 8 -9 12 -9 22 -21 22 -26 0 -5 11 -25 25
-45 13 -20 22 -40 19 -45 -3 -4 0 -8 7 -8 7 0 10 -3 7 -6 -3 -3 5 -17 18 -31
13 -14 22 -29 19 -33 -3 -4 2 -13 10 -20 8 -7 15 -22 15 -33 0 -11 3 -18 6
-14 3 3 16 -13 29 -36 35 -67 49 -90 62 -105 7 -7 16 -24 19 -38 3 -13 10 -24
15 -24 5 0 9 -5 9 -10 0 -6 11 -28 25 -50 14 -22 23 -40 20 -40 -3 0 3 -10 15
-22 18 -20 25 -39 21 -61 -1 -5 3 -6 9 -2 5 3 10 2 10 -3 0 -5 11 -25 24 -45
13 -19 22 -38 18 -41 -3 -3 -1 -6 5 -6 11 0 40 -59 35 -73 -1 -5 1 -6 6 -3 5
3 15 -7 21 -22 7 -15 11 -27 9 -28 -1 0 5 -9 15 -19 10 -9 16 -24 13 -32 -3
-8 -1 -11 4 -8 5 3 15 -7 22 -22 7 -15 15 -30 18 -33 3 -3 12 -18 20 -35 8
-16 17 -32 20 -35 3 -3 11 -16 18 -30 7 -14 23 -43 37 -65 14 -22 29 -50 35
-62 5 -11 14 -24 20 -28 5 -3 8 -11 5 -16 -4 -5 -3 -9 2 -9 4 0 19 -21 33 -47
13 -27 27 -50 30 -53 3 -3 11 -15 18 -27 10 -19 10 -23 0 -24 -7 0 -3 -4 10
-9 19 -8 27 -26 23 -53 0 -4 5 -6 11 -5 7 2 12 -3 10 -9 -1 -7 2 -13 8 -13 5
0 10 -4 10 -9 0 -8 83 -155 116 -206 9 -14 13 -25 10 -25 -4 0 2 -10 14 -22
19 -20 24 -33 21 -50 0 -5 3 -8 9 -8 5 0 16 -13 25 -30 9 -17 12 -30 8 -30 -4
0 0 -6 9 -12 9 -7 28 -34 42 -60 45 -83 72 -130 134 -235 34 -57 59 -103 56
-103 -3 0 0 -6 6 -13 29 -34 56 -85 54 -100 -1 -9 1 -15 5 -13 9 6 97 -144 95
-161 -1 -7 1 -11 5 -10 3 1 7 -2 8 -6 1 -4 11 -19 23 -34 11 -14 20 -32 20
-39 0 -8 5 -14 10 -14 6 0 10 -5 10 -11 0 -6 14 -30 30 -55 17 -24 28 -44 25
-44 -4 0 0 -7 8 -15 9 -8 17 -20 19 -27 3 -9 9 -8 22 5 10 9 14 17 9 17 -4 0
-1 6 7 13 8 7 16 18 18 26 2 8 12 27 23 42 10 15 19 32 19 38 0 6 5 11 10 11
6 0 10 7 10 15 0 8 4 15 10 15 5 0 9 3 8 8 -3 11 33 75 51 90 9 8 10 10 3 7
-8 -4 -2 11 12 34 15 22 40 67 57 98 17 32 36 63 43 68 7 6 13 12 12 15 -1 12
88 169 94 165 3 -2 7 6 7 17 1 12 6 24 11 27 8 5 63 101 100 173 7 16 17 28
22 28 4 0 11 11 14 25 4 14 11 25 17 25 6 0 8 4 4 9 -3 5 1 15 8 23 7 7 20 27
28 43 9 17 25 47 37 68 39 67 64 111 90 157 13 25 31 52 38 61 8 8 14 21 14
27 0 7 9 21 20 32 11 11 18 20 15 20 -3 0 2 14 10 30 9 18 21 28 27 24 7 -4 8
-3 4 5 -11 18 76 162 94 155 12 -4 12 -2 3 7 -9 9 -8 18 5 38 9 14 21 29 27
33 5 4 6 8 2 8 -4 0 7 24 26 53 18 28 43 72 56 97 12 25 30 51 39 58 9 6 13
12 9 12 -7 0 8 28 76 145 23 39 45 73 50 76 5 3 8 9 8 13 -1 16 12 35 22 29 5
-3 7 -1 3 5 -5 9 55 127 73 142 4 3 15 24 26 48 10 24 23 46 28 49 6 4 7 1 2
-7 -5 -9 -4 -11 4 -6 6 4 9 12 6 17 -10 15 38 86 55 82 11 -4 12 -2 2 4 -9 7
-1 29 35 92 76 131 85 146 92 151 3 3 7 12 9 20 2 8 8 17 13 18 5 2 6 9 2 15
-4 6 0 8 9 4 11 -4 14 -1 11 11 -2 10 5 27 17 40 11 12 18 22 16 22 -6 0 50
107 66 128 6 6 9 13 7 13 -13 5 -3519 3 -3519 -1z m1878 -532 c12 -10 14 -10
8 0 -9 15 -3 15 39 -2 18 -8 35 -12 38 -10 3 3 22 -2 43 -11 22 -9 41 -16 44
-16 17 0 49 -12 46 -18 -2 -3 8 -7 22 -8 15 0 28 -6 30 -12 2 -6 11 -11 19
-11 28 0 215 -119 207 -131 -3 -5 1 -7 8 -4 7 3 32 -12 56 -34 23 -21 42 -37
42 -35 0 2 9 -4 19 -13 11 -9 17 -21 14 -26 -3 -6 -2 -7 3 -4 6 3 16 2 24 -3
11 -7 11 -11 1 -23 -9 -12 -9 -17 0 -23 7 -4 9 -3 5 4 -3 6 -2 13 4 17 12 8
172 -154 164 -167 -3 -4 0 -8 6 -8 22 0 -145 -169 -255 -259 -183 -150 -404
-260 -576 -286 -48 -8 -222 -8 -254 -1 -117 26 -181 47 -270 87 -109 49 -263
153 -374 254 -63 57 -159 155 -181 185 l-18 26 39 39 c21 21 39 42 39 47 0 4
8 8 17 8 9 0 14 3 10 6 -8 8 16 33 26 27 4 -2 7 2 7 11 0 8 4 16 9 18 5 2 32
24 59 50 27 26 52 44 56 41 3 -4 6 -1 6 4 0 16 98 85 110 78 6 -4 7 -11 4 -17
-5 -7 -2 -8 5 -3 9 5 9 11 3 17 -12 12 -3 23 38 49 14 9 38 24 55 35 21 14 27
15 21 4 -5 -8 1 -4 14 8 13 14 30 22 41 19 10 -3 18 -2 17 2 -2 18 4 22 17 11
13 -11 14 -10 10 2 -6 16 9 22 153 63 56 16 82 20 82 12 0 -9 2 -9 8 0 14 22
212 23 240 1z"/>
<path d="M2573 3025 c0 -8 4 -12 9 -9 5 3 6 10 3 15 -9 13 -12 11 -12 -6z"/>
<path d="M2334 2996 c1 -8 5 -18 8 -22 4 -3 5 1 4 10 -1 8 -5 18 -8 22 -4 3
-5 -1 -4 -10z"/>
<path d="M2395 2980 c-3 -5 -1 -10 4 -10 6 0 11 5 11 10 0 6 -2 10 -4 10 -3 0
-8 -4 -11 -10z"/>
<path d="M2736 2981 c-3 -5 2 -15 12 -22 15 -12 16 -12 5 2 -7 9 -10 19 -6 22
3 4 4 7 0 7 -3 0 -8 -4 -11 -9z"/>
<path d="M3013 2889 c-2 -23 3 -25 10 -4 4 8 3 16 -1 19 -4 3 -9 -4 -9 -15z"/>
<path d="M2034 2862 c4 -3 14 -7 22 -8 9 -1 13 0 10 4 -4 3 -14 7 -22 8 -9 1
-13 0 -10 -4z"/>
<path d="M2495 2810 c-148 -36 -249 -166 -249 -320 1 -121 89 -237 214 -283
51 -19 135 -22 175 -7 20 8 24 7 19 -3 -4 -6 2 -4 13 6 11 9 23 17 28 17 4 0
23 11 41 25 35 27 49 32 38 13 -4 -7 -3 -8 5 -4 6 4 9 11 6 16 -7 12 26 51 37
44 5 -3 7 -2 6 3 -1 4 8 34 20 66 62 162 -4 330 -158 405 -48 23 -146 34 -195
22z"/>
<path d="M3195 2771 c-3 -5 -2 -12 3 -15 5 -3 9 1 9 9 0 17 -3 19 -12 6z"/>
<path d="M1896 2738 c3 -4 11 -5 19 -1 21 7 19 12 -4 10 -11 0 -18 -5 -15 -9z"/>
<path d="M3373 2625 c0 -8 4 -12 9 -9 5 3 6 10 3 15 -9 13 -12 11 -12 -6z"/>
<path d="M3390 2597 c0 -2 6 -10 14 -16 11 -9 16 -9 22 1 4 7 4 10 -1 6 -4 -4
-14 -3 -22 3 -7 6 -13 9 -13 6z"/>
<path d="M1655 2541 c-3 -5 -2 -12 3 -15 5 -3 9 1 9 9 0 17 -3 19 -12 6z"/>
<path d="M2376 2222 c-3 -5 1 -9 9 -9 8 0 12 4 9 9 -3 4 -7 8 -9 8 -2 0 -6 -4
-9 -8z"/>
<path d="M2730 2220 c0 -5 5 -10 11 -10 5 0 7 5 4 10 -3 6 -8 10 -11 10 -2 0
-4 -4 -4 -10z"/>
<path d="M2473 2165 c0 -8 4 -12 9 -9 5 3 6 10 3 15 -9 13 -12 11 -12 -6z"/>
<path d="M2515 2161 c-3 -5 -2 -12 3 -15 5 -3 9 1 9 9 0 17 -3 19 -12 6z"/>
<path d="M2574 2156 c1 -8 5 -18 8 -22 4 -3 5 1 4 10 -1 8 -5 18 -8 22 -4 3
-5 -1 -4 -10z"/>
<path d="M4075 3089 c-4 -6 -5 -12 -2 -15 2 -3 7 2 10 11 7 17 1 20 -8 4z"/>
<path d="M3950 2906 c0 -2 7 -7 16 -10 8 -3 12 -2 9 4 -6 10 -25 14 -25 6z"/>
<path d="M1630 2061 c0 -6 4 -13 10 -16 6 -3 7 1 4 9 -7 18 -14 21 -14 7z"/>
<path d="M2910 1079 c0 -5 5 -7 10 -4 6 3 10 8 10 11 0 2 -4 4 -10 4 -5 0 -10
-5 -10 -11z"/>
<path d="M2770 861 c0 -6 4 -13 10 -16 6 -3 7 1 4 9 -7 18 -14 21 -14 7z"/>
<path d="M4433 1045 c0 -8 4 -12 9 -9 5 3 6 10 3 15 -9 13 -12 11 -12 -6z"/>
<path d="M3990 639 c0 -5 5 -7 10 -4 6 3 10 8 10 11 0 2 -4 4 -10 4 -5 0 -10
-5 -10 -11z"/>
<path d="M1234 542 c4 -3 14 -7 22 -8 9 -1 13 0 10 4 -4 3 -14 7 -22 8 -9 1
-13 0 -10 -4z"/>
<path d="M3875 541 c-3 -5 -2 -12 3 -15 5 -3 9 1 9 9 0 17 -3 19 -12 6z"/>
<path d="M1310 499 c0 -5 5 -7 10 -4 6 3 10 8 10 11 0 2 -4 4 -10 4 -5 0 -10
-5 -10 -11z"/>
<path d="M3714 462 c4 -3 14 -7 22 -8 9 -1 13 0 10 4 -4 3 -14 7 -22 8 -9 1
-13 0 -10 -4z"/>
<path d="M1430 401 c0 -6 4 -13 10 -16 6 -3 7 1 4 9 -7 18 -14 21 -14 7z"/>
<path d="M3576 378 c3 -5 10 -6 15 -3 13 9 11 12 -6 12 -8 0 -12 -4 -9 -9z"/>
<path d="M1573 335 c0 -8 4 -12 9 -9 5 3 6 10 3 15 -9 13 -12 11 -12 -6z"/>
<path d="M3493 329 c-2 -23 3 -25 10 -4 4 8 3 16 -1 19 -4 3 -9 -4 -9 -15z"/>
<path d="M1696 301 c-3 -4 4 -17 17 -27 22 -19 22 -19 4 2 -9 11 -14 24 -10
27 3 4 4 7 0 7 -3 0 -8 -4 -11 -9z"/>
<path d="M3395 299 c-3 -4 2 -6 10 -5 21 3 28 13 10 13 -9 0 -18 -4 -20 -8z"/>
<path d="M3299 288 c-5 -18 -6 -38 -1 -34 7 8 12 36 6 36 -2 0 -4 -1 -5 -2z"/>
<path d="M3253 255 c0 -8 4 -12 9 -9 5 3 6 10 3 15 -9 13 -12 11 -12 -6z"/>
<path d="M1795 251 c-3 -5 -2 -12 3 -15 5 -3 9 1 9 9 0 17 -3 19 -12 6z"/>
<path d="M1926 218 c3 -5 10 -6 15 -3 13 9 11 12 -6 12 -8 0 -12 -4 -9 -9z"/>
<path d="M1999 213 c-12 -16 -12 -17 2 -6 9 7 20 9 24 5 5 -4 5 -1 1 6 -9 16
-11 15 -27 -5z"/>
<path d="M3099 228 c-5 -18 -6 -38 -1 -34 7 8 12 36 6 36 -2 0 -4 -1 -5 -2z"/>
<path d="M3230 220 c0 -5 5 -10 11 -10 5 0 7 5 4 10 -3 6 -8 10 -11 10 -2 0
-4 -4 -4 -10z"/>
<path d="M2095 200 c3 -5 8 -10 11 -10 2 0 4 5 4 10 0 6 -5 10 -11 10 -5 0 -7
-4 -4 -10z"/>
<path d="M3010 200 c0 -5 5 -10 11 -10 5 0 7 5 4 10 -3 6 -8 10 -11 10 -2 0
-4 -4 -4 -10z"/>
<path d="M3140 206 c0 -2 8 -10 18 -17 15 -13 16 -12 3 4 -13 16 -21 21 -21
13z"/>
<path d="M2895 191 c-3 -5 -2 -12 3 -15 5 -3 9 1 9 9 0 17 -3 19 -12 6z"/>
<path d="M2194 182 c4 -3 14 -7 22 -8 9 -1 13 0 10 4 -4 3 -14 7 -22 8 -9 1
-13 0 -10 -4z"/>
<path d="M2254 182 c4 -3 14 -7 22 -8 9 -1 13 0 10 4 -4 3 -14 7 -22 8 -9 1
-13 0 -10 -4z"/>
<path d="M2854 176 c1 -8 5 -18 8 -22 4 -3 5 1 4 10 -1 8 -5 18 -8 22 -4 3 -5
-1 -4 -10z"/>
<path d="M2796 158 c3 -5 10 -6 15 -3 13 9 11 12 -6 12 -8 0 -12 -4 -9 -9z"/>
<path d="M2653 145 c0 -8 4 -12 9 -9 5 3 6 10 3 15 -9 13 -12 11 -12 -6z"/>
<path d="M2493 135 c0 -8 4 -12 9 -9 5 3 6 10 3 15 -9 13 -12 11 -12 -6z"/>
<path d="M2730 145 c0 -7 30 -13 34 -7 3 4 -4 9 -15 9 -10 1 -19 0 -19 -2z"/>
</g>
</svg>
