<svg version="1" xmlns="http://www.w3.org/2000/svg" width="682.667" height="682.667" viewBox="0 0 512.000000 512.000000"><path d="M238 1.4c-.3.2-4.3.7-9 1-25 1.9-59 11.9-85.5 25C116.1 41 97.7 54.3 75.9 76c-28.7 28.6-48.1 59.5-61.3 97.8-2 5.7-3.8 11.3-4 12.5-.3 1.2-1.1 4.7-2 7.7-1.4 5.2-4.5 20.7-5.1 26-1.6 12-2 19.1-2 36 0 26.7 2.1 43.5 8.2 66 11.9 44.2 33.7 81.6 66.7 114.5 24.6 24.6 51.9 42.7 83.6 55.8 7.8 3.2 28.8 10.2 33.5 11.1 1.1.2 4.9 1.1 8.5 1.9 3.6.8 8.8 1.8 11.5 2.3 2.8.4 5.7.9 6.5 1 10.2 2 49.4 2.6 62.5 1.1 3.9-.5 8.4-1 10-1.2 3.8-.5 9.6-1.5 11.5-2 .8-.2 2.6-.6 4-.9 33.7-6.1 72.6-23.9 103.4-47.4 9.2-7 32-28.7 39.2-37.2 33.4-39.7 53.9-87.9 59.1-139 1.6-15.2.9-49.8-1.2-62.5-7.6-45.1-20.9-78-45.4-112.2-35.2-49.1-86-83.5-145.6-98.8-8.9-2.3-13.3-3.1-25.5-5-1.9-.3-5.1-.8-7-1.1-4.5-.7-46.4-1.6-47-1zm45 36c1.9.3 5.1.8 7 1.2 1.9.3 4.9.8 6.5 1.1 1.7.2 6.8 1.3 11.5 2.5 53.5 13 100.5 46 131.4 92.3 10.4 15.6 25.1 47.2 28.1 60.3.2.9 1.3 5.3 2.4 9.7 1 4.4 2.2 9.3 2.4 11 .3 1.6.8 4.6 1.1 6.5 2.7 15.6 3.2 43.2 1 60.3-.7 6-1.5 11.6-1.8 12.5-.3.9-.7 3.5-1.1 5.7-.9 6.5-6.2 24.5-10.4 35.2-26.8 68.7-87.5 120.5-158.6 135.4-18.1 3.7-24.8 4.4-46.5 4.4-20.3 0-25.9-.5-41.8-3.6-5.9-1.2-11.6-2.3-12.8-2.5-3.3-.6-19.7-6.1-27.9-9.4-47.4-18.8-90.6-58.4-113.5-104-12.2-24.3-19.8-49.5-22.8-76-1.4-13.1-.7-47.6 1.3-57.9.2-1 .6-3.5.9-5.6 1.2-7.1 6.6-27.4 9.5-35.2C71.1 121.1 117.2 74 176.2 51c13-5.1 29.6-9.8 40.8-11.5 1.9-.3 4.2-.8 5-1 .8-.2 4.7-.7 8.5-1.1 3.9-.3 7.2-.8 7.4-1 .5-.5 41.1.4 45.1 1z"/><path d="M67 147.6c0 .3.8 1.8 1.9 3.2 1 1.5 2 3.1 2.2 3.7.3.9 9.8 17.5 15.3 26.8 1 1.8 6.9 12 13.1 22.7 6.2 10.7 12.2 21.1 13.4 23 1.2 1.9 2.7 4.7 3.3 6.2.7 1.6 1.6 2.8 2 2.8.4 0 .8.4.8.9s9.7 17.7 21.6 38.2c11.9 20.6 22.6 39.2 23.9 41.4 1.2 2.2 5.5 9.6 9.5 16.5s8.3 14.3 9.5 16.5c1.3 2.2 4.6 8 7.5 13 2.9 4.9 6.4 11 7.8 13.4 1.4 2.5 3.8 6.8 5.5 9.5 1.7 2.8 3.5 6 4.1 7.1 6.4 11.7 47.1 81.5 47.6 81.5s8.1-12.8 23.8-40.3c2-3.5 24.6-42.6 67.7-117.2 5.4-9.4 15.4-26.7 22.3-38.5 6.8-11.8 13.6-23.5 15-26 1.4-2.5 3.4-5.9 4.4-7.5 1-1.7 2.1-3.7 2.5-4.5.3-.8 2.1-3.9 4-6.8 1.8-2.9 3.3-5.4 3.3-5.6 0-.3 1.9-3.7 4.3-7.8 2.4-4 5.5-9.3 6.9-11.8 1.4-2.5 9.8-17.1 18.7-32.4 8.8-15.4 16.1-28.1 16.1-28.3 0-.1-85-.3-189-.3-103.9 0-189 .3-189 .6zm210.6 57.9c26.7 6.8 54.7 25.3 78.8 52.2 4.5 5 4.7 4.5-6.5 16.1-24.2 24.9-49.9 40.5-76.6 46.5-10 2.3-27.2 1.9-37.8-.8-4.9-1.3-11-3.1-13.5-4-18.8-7-42.9-23.9-60.7-42.6-10.3-10.8-10.1-10.4-6.2-14.7 23.7-25.6 46.1-41.6 70-50 18.1-6.4 34.6-7.2 52.5-2.7z"/><path d="M248.7 229.1c-9.2 2.1-18.1 8.9-22.5 17.4-6.4 11.9-4.4 27.6 4.7 37.7 15.7 17.5 44.4 13.9 55.1-6.8 2.7-5.4 3.3-8.5 3.3-16.5 0-12.1-7.3-23.3-18.7-28.9-6.6-3.2-15.3-4.4-21.9-2.9z"/></svg>