<?xml version="1.0" encoding="utf-8"?>
<!-- Generator: Adobe Illustrator 23.0.3, SVG Export Plug-In . SVG Version: 6.00 Build 0)  -->
<svg version="1.1" id="Layer_1" xmlns="http://www.w3.org/2000/svg" xmlns:xlink="http://www.w3.org/1999/xlink" x="0px" y="0px"
	 viewBox="0 0 933.3 933.3" style="enable-background:new 0 0 933.3 933.3;" xml:space="preserve">
<g>
	<path d="M899.7,468c0,239-193.7,432.7-432.7,432.7C228,900.7,34.3,707,34.3,468S228,35.3,467,35.3C706,35.3,899.7,229,899.7,468z
		 M467,94.5C260.7,94.5,93.5,261.7,93.5,468c0,206.3,167.2,373.5,373.5,373.5c206.3,0,373.5-167.2,373.5-373.5
		C840.5,261.7,673.3,94.5,467,94.5z"/>
	<path d="M788.4,282.7L467,839.5L145.5,282.7H788.4z M467,377.2c-97.8,0-177.1,101.5-177.1,101.5S369.2,580.3,467,580.3
		c97.8,0,177.1-101.5,177.1-101.5S564.8,377.2,467,377.2z"/>
	<path d="M524.1,478.2c0,31.6-25.6,57.2-57.1,57.2c-31.6,0-57.2-25.6-57.2-57.2c0-31.6,25.6-57.2,57.2-57.2
		C498.6,421.1,524.1,446.6,524.1,478.2z"/>
</g>
</svg>
