<svg version="1" xmlns="http://www.w3.org/2000/svg" width="933.333" height="933.333" viewBox="0 0 700.000000 700.000000"><path d="M341.7 26.6c-.1.1-6.5.4-14.2.7-37.1 1.7-70 9.8-109.4 27.1-39.8 17.5-75.3 43.1-106.6 76.7-11.8 12.7-27.7 33.4-34 44.4-1.6 2.7-3.2 5.2-3.5 5.5-3.1 2.6-20.1 36.9-27.2 55-5.6 14.1-12.1 37-14.2 49.5-.3 1.6-1.2 6.8-2 11.5-1.5 8.1-2.1 12.8-3.1 25-.6 7.1-.6 51.5 0 60 .4 6.1 1.1 12.3 2 17.3 3.5 19.3 6 31.8 7.1 34.2.6 1.6 1.7 5 2.4 7.5.6 2.5 2.7 9.1 4.6 14.8 1.9 5.7 3.5 11.4 3.6 12.8.1 1.3.5 2.4.9 2.4.3 0 1.4 1.9 2.3 4.2 1 2.4 2.6 6 3.7 8 1 2 1.9 4.1 1.9 4.7 0 .5 4.7 9.2 10.5 19.2S77 525.6 77 526c0 .4 1.1 2 2.4 3.5 1.3 1.5 3 4 3.8 5.4.7 1.4 3.9 5.7 7.2 9.6 3.2 3.8 6.1 7.7 6.4 8.5.3.8 2.1 3.1 4.1 5 3 3 11.1 12.1 20.7 23.1 1.1 1.3 3.8 3.7 5.9 5.4 2 1.6 7.2 6 11.4 9.7 4.2 3.7 8.1 6.8 8.7 6.8.6 0 1.9.9 3 2.1 4 4.4 28.6 21 41.4 28 7.4 4 14.7 8.1 16.2 9.1 1.4 1 3.3 1.8 4.2 1.8.9 0 1.6.4 1.6.9s1.4 1.2 3 1.6c1.7.4 3 1.1 3 1.6s1.1.9 2.4.9c1.3 0 5 1.3 8.2 3 3.2 1.6 6.5 3 7.3 3 2.2 0 11.1 3.4 11.1 4.2 0 .5 1.4.8 3 .8 1.7 0 4.7.8 6.8 1.7 2 .9 4.4 1.7 5.2 1.9 5.1.6 9.9 1.6 18.6 3.9 5.5 1.4 12.8 2.8 16.4 3 13.9 1.2 23.5 2.8 25.5 4.5.9.7 1.4.6 1.8-.4.4-1.1 2-1.3 6.9-1 3.4.3 6.7.9 7.2 1.4.5.5 1.9.4 3.5-.1 1.5-.6 2.7-.7 2.9-.1.1.5 1.9.5 4.2-.1 2.7-.8 5.3-.7 8.7 0 2.6.6 5 .8 5.3.3.3-.5 4.6-1.1 9.5-1.5 9.8-.6 11.8-.9 24.5-3.1 10.5-1.7 11.3-1.7 10.3-.2-.4.8.4.6 1.8-.4 1.4-.9 7.2-2.6 12.9-3.8 5.6-1.2 11.2-2.6 12.4-3 1.1-.5 6.2-2.1 11.1-3.5 5-1.4 11-3.5 13.5-4.5s11-4.6 18.8-7.9c7.9-3.4 15.3-6.1 16.3-6.1 1.1 0 3-1.1 4.2-2.4 2.3-2.6 12.8-8.6 15.1-8.6.7 0 2.7-1.4 4.4-3 1.8-1.7 3.8-3 4.6-3 .7 0 1.9-.7 2.6-1.5.7-.8 2.4-2.1 3.9-2.8 2.2-1.1 27-20.7 36-28.4 1.4-1.2 3.2-2.2 3.9-2.3.6 0 1.2-.9 1.2-1.9 0-1 .6-1.8 1.3-1.7.7 0 5.5-4.8 10.7-10.8 5.1-6 12.2-13.9 15.7-17.7 3.4-3.8 7.3-8.5 8.6-10.6 1.4-2.1 3.4-4.7 4.6-5.7 1.2-1.1 2.9-3.5 3.8-5.4.9-1.9 2.5-3.7 3.5-4 1-.2 1.5-.8 1.2-1.3-.7-1.2 2.3-6.6 4.1-7.3.9-.3 1.3-1.1 1-1.7-.4-.6.2-1.7 1.4-2.5s2.1-2.2 2.1-2.9c0-.8 1.4-4.1 3.2-7.2 1.7-3.2 4.9-9.3 7-13.6 2.1-4.3 4.6-8.6 5.6-9.5.9-1 1.9-2.9 2-4.2.2-1.4 1.5-5.2 2.9-8.5 1.3-3.3 2.5-6.6 2.5-7.4.1-.8 1-1.6 2-1.9 1.5-.4 1.6-.7.6-2-1-1.2-1-1.6 0-1.9.6-.3 1.2-1.5 1.2-2.8 0-1.3.4-3.4.9-4.7.5-1.3 1.8-5 2.7-8.3 1-3.3 2-6.2 2.3-6.5.3-.3.7-1.4.8-2.5.4-3.4 1.4-7.9 2.3-10 .8-2 4.4-23.4 5.5-33 1.6-14.3 2.3-61.4 1.1-73-1.6-15.6-3.9-28.3-8.7-48-9.5-39.8-32.5-86.9-57.6-118.5-18.2-23-36.4-41.2-56.3-56.5-3.6-2.8-6.7-5.3-7-5.6-1.3-1.5-22.5-15.2-32-20.7-40.1-23.1-88.2-38.3-132-41.8-6.1-.5-36.8-1.2-37.3-.8zm-.8 44.7c.7-.8 1.6-1.1 2-.6.3.4 7.6.8 16.1.8 15.6.1 28.2 1 31 2.4.8.4 3.7.9 6.5 1 2.7.1 5.2.5 5.5.9.3.4 1.9.8 3.5.8 6.3.2 34 8.1 37.3 10.7.7.6 2.5 1.2 3.9 1.3 3.1.3 20.2 7.5 29.3 12.2 16 8.4 20 10.6 20 11.3 0 .4.9.9 2 1.2 1.2.3 2 1.4 2 2.5 0 1.5.5 1.9 2 1.5 2.3-.6 7 2.1 7 4.1 0 .7.6 1.3 1.4 1.3 1.7 0 11.6 6.2 11.6 7.3 0 .5 2.3 2.5 5.1 4.5s8.9 7.3 13.5 11.7c8.3 8 8.4 8.2 6.7 10.2-1.8 2.1-1.8 2.1.3.3 2.1-1.7 2.2-1.6 6.3 3 2.3 2.7 5.9 6.6 8 8.8 6.8 7.2 15.1 18.1 15.5 20.6.2 1.3.9 2.3 1.4 2.2 2.4-.6 20.5 30.9 19.9 34.4-.3 1.6.1 2.3 1.6 2.5 1.5.2 2.7 2 4.4 6.3 1.3 3.3 2.6 7.3 2.9 9 .3 1.6.9 3.1 1.5 3.3.5.2.9 1 .9 1.8 0 .7.9 3.2 2.1 5.4 1.2 2.2 2.1 5.6 2.2 7.5.1 1.9.4 3.5.8 3.5 2.1 0 8.5 24.5 7.4 28.1-.4 1.3-.2 2.4.5 2.9 1.2.8 2.5 6.3 3.6 15.5.4 2.7 1 5.9 1.4 7.1.5 1.1.5 2.6 0 3.3-.4.7-.4 3 .1 5.1 1 4.5.9 43.4-.2 53.5-2.3 22.1-10.1 52.7-19.1 75-4.1 10-16.3 34.3-19.7 39.3-1 1.5-4 6.1-6.7 10.2-29.2 45-79 85.3-128.9 104.4-3.8 1.5-7.9 3.1-9 3.6-8.2 3.4-24.9 7.9-45.5 12-13.4 2.7-36.5 4.9-41 3.9-1.9-.4-3.9-.4-4.5.1-.7.6-2.4.6-4.3.1-1.8-.6-3.4-.6-3.7-.1-.3.5-2.7.7-5.3.5-2.6-.2-8.3-.6-12.7-1-4.4-.3-8.9-.8-10-1-1.1-.3-4.2-.7-7-.9-6.6-.7-20.7-3.4-27-5.1-17.1-4.8-20.9-6-29.5-9.2-61-22.6-110.2-63.4-143.8-118.9-15.7-26.1-28.2-57.5-33.7-84.9-1.2-6.2-2.6-14.1-3.1-17.5-.2-1.9-.7-5.1-1-7-1.4-9-2.1-41.1-1-44.7.4-1.2.3-2.4-.3-2.7-1-.6-.9-1.6 1-13.6.7-4.1 1.3-9.5 1.4-12 .4-7.9 4.7-27.9 7.9-37 .9-2.5 1.6-5.8 1.6-7.3s.7-3 1.5-3.3c.9-.4 1.5-1.9 1.5-4.1 0-3.1.2-3.4 1.5-2.3s1.4 1 1-.3c-.7-1.8 3.6-14.6 6.2-18.5 1-1.5 1.8-3.4 1.9-4.3.2-2.5 4.4-10.9 5.5-10.9.5 0 .9-.9.9-2.1 0-1.1.4-1.8.9-1.5.5.3 1.2-1 1.5-2.9.4-1.9 2.2-5.4 4.1-7.9 1.8-2.4 3.1-4.7 2.8-5-.9-.9 2.9-4.7 4.2-4.2.8.3 1-.4.7-2-.3-1.8 0-2.4 1.2-2.4 1 0 1.5-.4 1.2-.9-.3-.4.8-2.6 2.4-4.7 1.6-2.1 3-4.4 3-5 0-1.7 9.9-11.4 11.6-11.4.8 0 1.4-.5 1.4-1 0-.6-.5-1-1-1-2 0 1-4 5-6.8 2.2-1.5 3.9-3.3 4-4.1 0-1.4 10.1-11.6 18.9-19.1 2.9-2.5 6.6-5.7 8.3-7.3 1.8-1.5 4.2-2.7 5.5-2.7 1.3 0 2.3-.5 2.3-1.1 0-2.1 13.8-13.2 18-14.4 1.4-.4 4.3-2.3 6.4-4.1 2.2-1.9 4.8-3.4 5.8-3.4s2.1-.6 2.4-1.4c.7-1.8 5.9-3.7 8-2.9.9.3 1.4 0 1.2-.7-.2-.8 1.8-2.2 4.7-3.4 2.8-1.1 5.2-2.4 5.5-2.7 1-1.3 4.9-2.9 6.9-2.9 1.2 0 2.1-.5 2.1-1.1 0-.6.7-.8 1.5-.5.9.3 1.8-.1 2.1-.9.6-1.5 19.9-8.3 24.7-8.7 1.5-.1 2.7-.5 2.7-.9s1.5-.9 3.3-1.2c1.7-.3 5.9-1.3 9.2-2.1 8.4-2.2 14.3-3.4 19.5-4.1 2.5-.3 5.6-.8 7-1 3.1-.5 8.7-1.3 16-2 3-.4 5.7-.8 5.9-1 .2-.2 1.5.2 3 .9 2.2 1.2 2.8 1.2 4-.1z"/><path d="M352 73c0 .5.5 1 1 1 .6 0 1-.5 1-1 0-.6-.4-1-1-1-.5 0-1 .4-1 1zM330.3 75.2c-.2 1.8 0 2 .7.8 1.2-1.8 1.3-3 .2-3-.4 0-.9 1-.9 2.2zM346.7 74.5c-.4.8-.2 1.7.3 2 .6.4 1-.3 1-1.4 0-2.5-.6-2.7-1.3-.6zM363 74.6c0 .8.5 1.2 1 .9.6-.4.8-1.1.5-1.6-.9-1.4-1.5-1.1-1.5.7zM324 76c0 .5.5 1 1 1 .6 0 1-.5 1-1 0-.6-.4-1-1-1-.5 0-1 .4-1 1zM379 78c0 1.9.3 2.1 1.2 1.2.9-.9.9-1.5 0-2.4-.9-.9-1.2-.7-1.2 1.2zM395.5 77.9c-.3.5-.1 1.2.5 1.6.5.3 1-.1 1-.9 0-1.8-.6-2.1-1.5-.7zM296 79c-1.3.8-1.2 1 .3 1 .9 0 1.7-.5 1.7-1 0-1.2-.1-1.2-2 0zM304.5 79.1c-1.7.6-1.6.8.7.8 1.5.1 2.9-.3 3.2-.7.6-1.1-1.4-1.1-3.9-.1zM318 79.2c0 .4.4.8.9.8.6 0 1.2-.4 1.5-.8.3-.5-.1-.9-.9-.9s-1.5.4-1.5.9zM357 80c0 .5.5 1 1 1 .6 0 1-.5 1-1 0-.6-.4-1-1-1-.5 0-1 .4-1 1zM275.6 83.5c-.3.8-.1 1.5.4 1.5.6 0 1-.7 1-1.5s-.2-1.5-.4-1.5-.6.7-1 1.5zM286.5 84c.3.5.8 1 1.1 1 .2 0 .4-.5.4-1 0-.6-.5-1-1.1-1-.5 0-.7.4-.4 1zM415.8 84.7c.6.2 1.8.2 2.5 0 .6-.3.1-.5-1.3-.5-1.4 0-1.9.2-1.2.5zM294 85.4c0 .2.7.9 1.5 1.6.9.7 1.5.8 1.5.2 0-.5-.7-1.2-1.5-1.6-.8-.3-1.5-.4-1.5-.2zM409 88c0 .5.5 1 1 1 .6 0 1-.5 1-1 0-.6-.4-1-1-1-.5 0-1 .4-1 1zM434 89.6c0 .8.5 1.2 1 .9.6-.4.8-1.1.5-1.6-.9-1.4-1.5-1.1-1.5.7zM259.5 90c-.3.5.1 1 1 1s1.3-.5 1-1c-.3-.6-.8-1-1-1-.2 0-.7.4-1 1zM264.7 90.9c-.4 1.7-.3 2.1.5 1.3.5-.5.8-1.6.6-2.3-.3-.8-.7-.3-1.1 1zM442 93.6c0 .8.5 1.2 1 .9.6-.4.8-1.1.5-1.6-.9-1.4-1.5-1.1-1.5.7zM447.5 92.9c-.6 1.1.9 2.3 1.9 1.4.9-.9.7-2.3-.3-2.3-.6 0-1.2.4-1.6.9zM248.7 95.7c-.4.3-.7 1.3-.7 2.2.1 1.3.3 1.3 1.1-.2 1.1-1.9.8-3.3-.4-2zM456 97c0 1.1.2 2 .4 2s.6-.9.9-2c.3-1.1.1-2-.4-2s-.9.9-.9 2zM223 109c0 .5.5 1 1 1 .6 0 1-.5 1-1 0-.6-.4-1-1-1-.5 0-1 .4-1 1zM210 113c0 1.1.2 2 .4 2s.6-.9.9-2c.3-1.1.1-2-.4-2s-.9.9-.9 2zM204.8 117.7c.7.3 1.6.2 1.9-.1.4-.3-.2-.6-1.3-.5-1.1 0-1.4.3-.6.6zM199.7 119.7c-.4.3-.7 1.1-.7 1.7 0 .6.5.5 1.2-.2.6-.6.9-1.4.7-1.7-.3-.3-.9-.2-1.2.2zM509.5 128c-.3.5.1 1 1 1s1.3-.5 1-1c-.3-.6-.8-1-1-1-.2 0-.7.4-1 1zM186.8 128.7c.7.3 1.6.2 1.9-.1.4-.3-.2-.6-1.3-.5-1.1 0-1.4.3-.6.6zM527 140.4c0 .8.4 1.7.9 2.1.6.3.9-.4.8-1.5-.1-2.3-1.7-2.8-1.7-.6zM166 144c0 .5.5 1 1 1 .6 0 1-.5 1-1 0-.6-.4-1-1-1-.5 0-1 .4-1 1zM152.5 156c-.3.5-.2 1 .4 1 .5 0 1.3-.5 1.6-1 .3-.6.2-1-.4-1-.5 0-1.3.4-1.6 1zM150 161c0 .6.7 1.3 1.5 1.7 2.4.9 2.7-.1.5-1.5-1.3-.8-2-.8-2-.2zM115.3 211.8c-2.9.2-5.3.5-5.3.8 0 .3 3 5.6 6.6 11.7 3.7 6.2 6.7 11.7 6.8 12.4.1.7.9 2 1.8 3s3.5 5.4 5.8 9.8 5.3 9.4 6.6 11.2c1.3 1.7 2.4 3.7 2.4 4.4 0 .7.7 2 1.5 2.9.8.9 1.6 2.5 1.8 3.7.1 1.1 1 2.8 2 3.7.9 1 2.9 3.8 4.4 6.4 1.4 2.6 4 6.9 5.7 9.6 3.2 5.2 3.9 6.5 10 17.8 2.1 4 4.7 8.5 5.7 10 1.1 1.4 2.2 4 2.5 5.7.4 1.7 1.1 2.9 1.6 2.8.5-.1 2.4 2.5 4.2 5.8 1.8 3.3 4.2 7.6 5.4 9.5 1.2 1.9 2.2 4.3 2.2 5.2 0 .9.6 2.1 1.4 2.5 1.5.9 9 14.3 8 14.3-.3 0 .3.8 1.3 1.7 2.1 1.9 25.3 41.6 25.3 43.2 0 .5.6 1.6 1.3 2.3 2 2 10.7 17 11 18.8.1.8 1.2 2.5 2.4 3.7 1.2 1.2 2 3 1.9 4-.2.9.8 2.6 2.1 3.6 1.3 1.1 3.5 4.2 5 7 1.4 2.9 5.4 10 8.9 16 3.5 5.9 6.4 11.3 6.4 12.1 0 .7.9 2.1 1.9 3 1.1 1 2.3 3.1 2.6 4.8.4 1.6 1.3 3.2 2 3.4.7.3 2.1 2.4 3.1 4.7 1 2.3 2.5 5.1 3.5 6.2.9 1.1 6.2 9.9 11.7 19.5 5.5 9.6 11.4 20 13.1 23 1.8 3 3.9 7.1 4.7 9 .9 1.9 2.4 4.4 3.4 5.5 1.1 1.1 3.1 4.7 4.5 7.9s3.6 7.2 4.9 9c2.9 3.9 9.6 16 9.6 17.4 0 .6 1 2.2 2.3 3.6 1.2 1.3 3.3 4.4 4.5 6.8 1.3 2.3 4.3 7.4 6.7 11.3 2.4 3.8 4.5 7.4 4.5 8 0 .5 1.2 2.3 2.5 4 2.6 3.1 3.4 2.9 5.9-1.3 11.5-19.8 11.9-20.6 12.7-21.2.3-.3 1.4-2.3 2.4-4.5 1.1-2.2 3-5.5 4.3-7.3 1.3-1.7 2.2-3.2 1.9-3.2-.7 0 12.9-23.8 14.8-26 .7-.8 2.7-4.4 4.5-8 1.8-3.6 5.2-9.5 7.6-13.1 2.4-3.7 4.4-7.2 4.4-7.8 0-.6 1.5-3.4 3.4-6.3 1.8-2.9 5.3-8.9 7.6-13.3 2.4-4.4 5.4-9.2 6.6-10.7 1.2-1.6 2.5-3.7 2.9-4.8.3-1.1 1.1-2 1.7-2 .5 0 .8-.6.5-1.3-.2-.6.8-3 2.3-5.2 1.5-2.2 6.2-10.3 10.5-18 4.2-7.7 9.4-16.7 11.4-20 7.1-11.4 10.1-16.6 10.1-17.4 0-1.7 4.2-6.1 5.2-5.5.7.4.8.2.4-.5-1.4-2.3 7.8-18.7 12-21.3.7-.5 1-1.6.7-2.6-.2-1.1.6-3.2 2.1-4.9 1.4-1.7 2.6-3.5 2.6-4 0-1.3 13.8-25.5 15.9-27.8 1-1.1 2.2-3.1 2.6-4.5.4-1.4 1.3-3.2 1.9-4 .6-.8 2.2-3.5 3.6-6 1.3-2.5 4.1-7.2 6.2-10.5 2.1-3.3 4.6-7.7 5.6-9.7.9-2.1 2.2-3.8 2.7-3.8.6 0 1.8-2.1 2.7-4.8 1-2.6 3.4-7.4 5.4-10.7 2.1-3.3 5.2-8.6 6.9-11.8 1.8-3.2 3.6-5.8 4.1-5.7.5 0 1.2-1.2 1.5-2.8.7-3.6 4.8-9.2 6.7-9.2.9 0 1.2-.6.8-1.6-.7-2 6.9-16.8 15-29 1.9-2.8 3.4-5.6 3.4-6.1 0-.6.7-1.6 1.5-2.3.8-.7 1.2-1.6.9-2.1-.3-.5.2-.9 1-.9.9 0 1.6-.7 1.6-1.5 0-.9 1.1-3.3 2.5-5.5s2.5-4.3 2.5-4.7c0-.5 2-4.4 4.5-8.7 2.5-4.3 4.3-8.2 3.9-8.5-.6-.6-464-.9-474.1-.3zM363 283.7c1.9.3 3.9.5 4.4.4 3.2-.8 27.7 7.1 35.8 11.5 1.4.7 3.1 1.4 3.7 1.4 1.4 0 16.6 9.1 22 13.2 2.4 1.8 5.7 4.1 7.4 5.1 5.8 3.5 16.7 13 16.7 14.5 0 .8.3 1.2.6.9.4-.3 1.6-.2 2.6.4 1.5.8 1.7 1.4.9 2.2-.6.6-1.1 1.8-1.1 2.6 0 1.2.3 1.1 1.3-.3 1.2-1.7 2.1-1.2 10.5 6.9 10.5 10 13.9 14.7 12.6 17.5-2 4.3-27.6 28.9-39.6 37.9-19 14.4-40.1 25.6-58.3 31.1-12.3 3.7-17.1 4.3-33 4.3-17.4 0-23.1-1-41.2-7.4-24.9-8.8-53.6-28.8-78.9-55-4.4-4.6-8.9-9.6-9.8-11.1-1.7-2.6-1.7-2.6 3.3-7.8 2.8-2.9 5.1-5.6 5.1-6.1s.5-.9 1-.9c1.2 0 7.5-6 8.1-7.7.2-.6 3.8-3.8 7.9-7.2 4.1-3.3 8.6-7.1 10-8.4 4.2-4 11.2-8.7 13.1-8.7.9 0 2 .6 2.3 1.2.4.7.4.3.2-.9-.2-1.3.4-2.9 1.8-4.1 3.6-3.3 13.7-9.5 14.3-8.9.3.4 1.7-.3 3.1-1.3 1.3-1.1 3.5-2 4.8-2 1.5 0 2.4-.6 2.4-1.6 0-1.4.3-1.4 1.5-.4 1.2 1 1.5 1 1.5-.2 0-.9 1.9-2.2 4.3-3.1 6.9-2.6 22.7-6.9 26.6-7.3 2-.1 6.3-.7 9.6-1.1 6.4-.9 16.7-.8 22.5.4z"/><path d="M352.1 286.6c0 1.1.3 1.4.6.6.3-.7.2-1.6-.1-1.9-.3-.4-.6.2-.5 1.3zM319 290.2c0 .9.5 2 1 2.3 1.3.8 1.3-.5 0-2.5-.8-1.3-1-1.3-1 .2zM327.5 293c.4.6 1.1.8 1.6.5 1.4-.9 1.1-1.5-.7-1.5-.8 0-1.2.5-.9 1zM374 292.9c0 .5.8 1.5 1.8 2.2 1.5 1.2 1.6 1.2.5-.2-.7-.9-1-1.9-.6-2.2.3-.4.1-.7-.5-.7-.7 0-1.2.4-1.2.9zM412 304.9c0 2.5.6 2.7 1.3.6.4-.8.2-1.7-.3-2-.6-.4-1 .3-1 1.4zM279 309c.8.5 2 1 2.5 1 .6 0 .3-.5-.5-1s-1.9-1-2.5-1c-.5 0-.3.5.5 1zM337 317.3c-17.8 6.6-28.7 21.2-29.5 39.7-.9 19.9 13.9 38.2 34.4 42.5 6.3 1.3 14.3 1.1 18.5-.4 1.8-.8 2.6-.7 2.6.1 0 .6.8.4 1.8-.5 1-1 2.2-1.7 2.6-1.7.4 0 3-1.6 5.8-3.5 3.4-2.2 5.4-3.1 5.9-2.4.8 1.3 1.4.4 2.3-3.4.3-1.5 1-2.7 1.4-2.7 2.4 0 4.5-3.5 6.8-11.5 5.4-18.8 2.1-34-10-46-8.6-8.4-16.5-11.5-30.1-12-5.1-.2-8.6.3-12.5 1.8zM437 322.1c0 .5.5.7 1 .4.6-.3 1-.8 1-1.1 0-.2-.4-.4-1-.4-.5 0-1 .5-1 1.1zM259.5 325c-.4.6.3 1 1.4 1 2.5 0 2.7-.6.6-1.3-.8-.4-1.7-.2-2 .3zM461 341c0 .5.5 1 1 1 .6 0 1-.5 1-1 0-.6-.4-1-1-1-.5 0-1 .4-1 1zM465.1 346.6c.6.7 1.7 1 2.5.7 2-.7 1.8-1-1.1-1.5-2-.4-2.3-.2-1.4.8zM226.5 352.9c-.3.5-.1 1.2.5 1.6.5.3 1-.1 1-.9 0-1.8-.6-2.1-1.5-.7zM325 395.9c0 .5.5 1.3 1 1.6.6.3 1 .2 1-.4 0-.5-.4-1.3-1-1.6-.5-.3-1-.2-1 .4zM373 395.9c0 .5.5 1.3 1 1.6.6.3 1 .2 1-.4 0-.5-.4-1.3-1-1.6-.5-.3-1-.2-1 .4zM338 404c0 .5.5 1 1 1 .6 0 1-.5 1-1 0-.6-.4-1-1-1-.5 0-1 .4-1 1zM344 405c0 .5.5 1 1.1 1 .5 0 .7-.5.4-1-.3-.6-.8-1-1.1-1-.2 0-.4.4-.4 1zM352 405.5c0 .8.4 1.5 1 1.5.5 0 .7-.7.4-1.5-.4-.8-.8-1.5-1-1.5-.2 0-.4.7-.4 1.5zM557.1 278.6c0 1.1.3 1.4.6.6.3-.7.2-1.6-.1-1.9-.3-.4-.6.2-.5 1.3zM540.7 303.1c.7.7 1.5 1 1.8.7.3-.3-.2-.9-1.2-1.2-1.4-.6-1.5-.5-.6.5zM223 418.5c0 .8.4 1.5 1 1.5.5 0 .7-.7.4-1.5-.4-.8-.8-1.5-1-1.5-.2 0-.4.7-.4 1.5zM398 552c0 .5.5 1 1 1 .6 0 1-.5 1-1 0-.6-.4-1-1-1-.5 0-1 .4-1 1zM379 583c0 .5.5 1 1.1 1 .5 0 .7-.5.4-1-.3-.6-.8-1-1.1-1-.2 0-.4.4-.4 1zM606 557c0 .5.5 1 1 1 .6 0 1-.5 1-1 0-.6-.4-1-1-1-.5 0-1 .4-1 1zM546 612c0 .5.5 1 1 1 .6 0 1-.5 1-1 0-.6-.4-1-1-1-.5 0-1 .4-1 1zM170 626c.8.5 2 1 2.5 1 .6 0 .3-.5-.5-1s-1.9-1-2.5-1c-.5 0-.3.5.5 1zM530 626.6c0 .8.5 1.2 1 .9.6-.4.8-1.1.5-1.6-.9-1.4-1.5-1.1-1.5.7zM179.5 631c-.3.5-.1 1 .4 1 .6 0 1.1-.5 1.1-1 0-.6-.2-1-.4-1-.3 0-.8.4-1.1 1zM508.8 637.2c.5.5 1.6.8 2.3.6.8-.3.3-.7-1-1.1-1.7-.4-2.1-.3-1.3.5zM195.6 645.5c.4.8 1.1 1.5 1.6 1.5.6 0 .5-.6-.2-1.5-.7-.8-1.4-1.5-1.6-1.5-.2 0-.1.7.2 1.5zM489 648c0 .5.4 1 .9 1 .6 0 1.3-.5 1.6-1 .3-.6-.1-1-.9-1-.9 0-1.6.4-1.6 1zM215 654c0 .5.5 1 1 1 .6 0 1-.5 1-1 0-.6-.4-1-1-1-.5 0-1 .4-1 1zM477.7 654.5c-.4.8-.2 1.7.3 2 .6.4 1-.3 1-1.4 0-2.5-.6-2.7-1.3-.6zM232 658.7c0 .5.7 1.8 1.5 2.9 1.3 1.8 1.4 1.8.8-.4-.5-2.2-2.3-4.1-2.3-2.5zM464.5 659c-.8 1.3.5 1.3 2.5 0 1.3-.8 1.3-1-.2-1-.9 0-2 .4-2.3 1zM451.1 660.7c-.1.6-.4 2-.7 3-.5 1.7-.5 1.7.6 0 .6-1 .9-2.3.6-3-.3-.9-.5-.9-.5 0zM445 665c0 .5.5 1 1.1 1 .5 0 .7-.5.4-1-.3-.6-.8-1-1.1-1-.2 0-.4.4-.4 1zM245.5 665.9c-.3.5-.1 1.2.5 1.6.5.3 1-.1 1-.9 0-1.8-.6-2.1-1.5-.7zM263.5 670c.4.6 1.1.8 1.6.5 1.4-.9 1.1-1.5-.7-1.5-.8 0-1.2.5-.9 1zM274.3 669.7c-2.1.8-1.5 2.2.7 1.6 1.1-.3 2-.9 2-1.4 0-1-.8-1-2.7-.2zM423.7 669.7c-.4.3-.7 1.3-.7 2.2.1 1.3.3 1.3 1.1-.2 1.1-1.9.8-3.3-.4-2zM442 670c0 .5.5 1 1 1 .6 0 1-.5 1-1 0-.6-.4-1-1-1-.5 0-1 .4-1 1zM287.1 672.6c0 1.1.3 1.4.6.6.3-.7.2-1.6-.1-1.9-.3-.4-.6.2-.5 1.3zM430.5 673c1 1.1 2 2 2.3 2 .3 0-.3-.9-1.3-2s-2-2-2.3-2c-.3 0 .3.9 1.3 2zM412 673c0 .5.5 1 1.1 1 .5 0 .7-.5.4-1-.3-.6-.8-1-1.1-1-.2 0-.4.4-.4 1zM396 674.6c0 .8.5 1.2 1 .9.6-.4.8-1.1.5-1.6-.9-1.4-1.5-1.1-1.5.7zM301 675c0 .6.7 1 1.5 1s1.5-.2 1.5-.4-.7-.6-1.5-1c-.8-.3-1.5-.1-1.5.4zM309 675c0 .6.7 1 1.5 1s1.5-.2 1.5-.4-.7-.6-1.5-1c-.8-.3-1.5-.1-1.5.4zM390 675.5c0 .5.5 1.7 1 2.5s1 1 1 .5c0-.6-.5-1.7-1-2.5s-1-1.1-1-.5zM382.5 678c-.3.5-.2 1 .4 1 .5 0 1.3-.5 1.6-1 .3-.6.2-1-.4-1-.5 0-1.3.4-1.6 1zM363 679.5c0 .8.4 1.5 1 1.5.5 0 .7-.7.4-1.5-.4-.8-.8-1.5-1-1.5-.2 0-.4.7-.4 1.5zM341 681.6c0 .8.5 1.2 1 .9.6-.4.8-1.1.5-1.6-.9-1.4-1.5-1.1-1.5.7zM374.8 680.7c.6.2 1.8.2 2.5 0 .6-.3.1-.5-1.3-.5-1.4 0-1.9.2-1.2.5z"/></svg>